<svg width="162" height="40" viewBox="0 0 162 40" fill="none" xmlns="http://www.w3.org/2000/svg">
<path d="M28.5673 19.9999C25.6052 23.3094 21.3008 25.3921 16.5098 25.3921C11.7189 25.3921 7.41441 23.3094 4.45239 19.9999C7.41441 16.6905 11.7189 14.6078 16.5098 14.6078C21.3008 14.6078 25.6052 16.6905 28.5673 19.9999Z" fill="#667085"/>
<path fill-rule="evenodd" clip-rule="evenodd" d="M0.333374 30.7843C0.333374 21.8502 7.57582 14.6078 16.5098 14.6078C11.7189 14.6078 7.41446 16.6905 4.45244 19.9999C7.41446 23.3094 11.7189 25.3921 16.5099 25.3921C21.3008 25.3921 25.6053 23.3094 28.5673 20C31.1288 22.8619 32.6863 26.6412 32.6863 30.7843V36.8954C32.6863 37.6895 32.0425 38.3333 31.2484 38.3333H1.77128C0.977147 38.3333 0.333374 37.6895 0.333374 36.8954V30.7843ZM28.5673 20C28.5673 20 28.5673 20 28.5673 20V20Z" fill="#98A2B3"/>
<path fill-rule="evenodd" clip-rule="evenodd" d="M10.4422 24.2157C8.13246 23.2804 6.08783 21.8272 4.45244 20C7.41446 16.6905 11.7189 14.6078 16.5099 14.6078C21.3008 14.6078 25.6053 16.6905 28.5673 19.9999C28.5673 19.9999 28.5673 19.9999 28.5673 19.9999C31.1288 17.138 32.6863 13.3587 32.6863 9.21565V3.10454C32.6863 2.3104 32.0425 1.66663 31.2484 1.66663L1.77128 1.66663C0.977149 1.66663 0.333375 2.3104 0.333375 3.10453L0.333374 9.21564C0.333373 16.0039 4.51466 21.8156 10.4422 24.2157Z" fill="#667085"/>
<path d="M57.9534 12.0467V28.3333H54.6867V21.4033H47.71V28.3333H44.4434V12.0467H47.71V18.7433H54.6867V12.0467H57.9534Z" fill="#475467"/>
<path d="M66.9086 28.5433C65.6642 28.5433 64.5442 28.2711 63.5486 27.7267C62.5531 27.1667 61.7675 26.3811 61.1919 25.37C60.6319 24.3589 60.3519 23.1922 60.3519 21.87C60.3519 20.5478 60.6397 19.3811 61.2153 18.37C61.8064 17.3589 62.6075 16.5811 63.6186 16.0367C64.6297 15.4767 65.7575 15.1967 67.0019 15.1967C68.2464 15.1967 69.3742 15.4767 70.3853 16.0367C71.3964 16.5811 72.1897 17.3589 72.7653 18.37C73.3564 19.3811 73.6519 20.5478 73.6519 21.87C73.6519 23.1922 73.3486 24.3589 72.7419 25.37C72.1508 26.3811 71.3419 27.1667 70.3153 27.7267C69.3042 28.2711 68.1686 28.5433 66.9086 28.5433ZM66.9086 25.6967C67.4997 25.6967 68.0519 25.5566 68.5653 25.2766C69.0942 24.9811 69.5142 24.5455 69.8253 23.97C70.1364 23.3944 70.2919 22.6944 70.2919 21.87C70.2919 20.6411 69.9653 19.7 69.3119 19.0466C68.6742 18.3778 67.8886 18.0433 66.9553 18.0433C66.0219 18.0433 65.2364 18.3778 64.5986 19.0466C63.9764 19.7 63.6653 20.6411 63.6653 21.87C63.6653 23.0989 63.9686 24.0478 64.5753 24.7167C65.1975 25.37 65.9753 25.6967 66.9086 25.6967Z" fill="#475467"/>
<path d="M88.2515 15.4067V28.3333H84.9615V26.7C84.5415 27.26 83.9893 27.7033 83.3048 28.03C82.6359 28.3411 81.9048 28.4967 81.1115 28.4967C80.1004 28.4967 79.2059 28.2867 78.4282 27.8667C77.6504 27.4311 77.0359 26.8011 76.5848 25.9766C76.1493 25.1367 75.9315 24.1411 75.9315 22.99V15.4067H79.1982V22.5233C79.1982 23.55 79.4548 24.3433 79.9682 24.9033C80.4815 25.4478 81.1815 25.72 82.0682 25.72C82.9704 25.72 83.6782 25.4478 84.1915 24.9033C84.7048 24.3433 84.9615 23.55 84.9615 22.5233V15.4067H88.2515Z" fill="#475467"/>
<path d="M94.7412 17.4133C95.1612 16.7289 95.7057 16.1922 96.3746 15.8033C97.059 15.4144 97.8368 15.22 98.7079 15.22V18.65H97.8446C96.8179 18.65 96.0401 18.8911 95.5112 19.3733C94.9979 19.8555 94.7412 20.6955 94.7412 21.8933V28.3333H91.4746V15.4067H94.7412V17.4133Z" fill="#475467"/>
<path d="M105.972 15.1967C106.936 15.1967 107.784 15.3911 108.515 15.78C109.246 16.1533 109.821 16.6433 110.241 17.25V15.4067H113.531V28.4267C113.531 29.6244 113.29 30.69 112.808 31.6233C112.326 32.5722 111.603 33.3189 110.638 33.8633C109.674 34.4233 108.507 34.7033 107.138 34.7033C105.303 34.7033 103.794 34.2755 102.611 33.42C101.445 32.5644 100.784 31.3978 100.628 29.92H103.871C104.043 30.5111 104.408 30.9778 104.968 31.32C105.544 31.6778 106.236 31.8567 107.045 31.8567C107.994 31.8567 108.764 31.5689 109.355 30.9933C109.946 30.4333 110.241 29.5778 110.241 28.4267V26.42C109.821 27.0267 109.238 27.5322 108.491 27.9367C107.76 28.3411 106.92 28.5433 105.972 28.5433C104.883 28.5433 103.887 28.2633 102.985 27.7033C102.083 27.1433 101.367 26.3578 100.838 25.3467C100.325 24.32 100.068 23.1455 100.068 21.8233C100.068 20.5167 100.325 19.3578 100.838 18.3467C101.367 17.3355 102.075 16.5578 102.962 16.0133C103.864 15.4689 104.867 15.1967 105.972 15.1967ZM110.241 21.87C110.241 21.0767 110.086 20.4 109.775 19.84C109.464 19.2644 109.044 18.8289 108.515 18.5333C107.986 18.2222 107.418 18.0667 106.811 18.0667C106.205 18.0667 105.645 18.2144 105.131 18.51C104.618 18.8055 104.198 19.2411 103.871 19.8167C103.56 20.3767 103.405 21.0455 103.405 21.8233C103.405 22.6011 103.56 23.2855 103.871 23.8767C104.198 24.4522 104.618 24.8955 105.131 25.2066C105.66 25.5178 106.22 25.6733 106.811 25.6733C107.418 25.6733 107.986 25.5255 108.515 25.23C109.044 24.9189 109.464 24.4833 109.775 23.9233C110.086 23.3478 110.241 22.6633 110.241 21.87Z" fill="#475467"/>
<path d="M119.989 11.0667V28.3333H116.722V11.0667H119.989Z" fill="#475467"/>
<path d="M122.376 21.8233C122.376 20.5167 122.633 19.3578 123.146 18.3467C123.675 17.3355 124.383 16.5578 125.269 16.0133C126.172 15.4689 127.175 15.1967 128.279 15.1967C129.244 15.1967 130.084 15.3911 130.799 15.78C131.531 16.1689 132.114 16.6589 132.549 17.25V15.4067H135.839V28.3333H132.549V26.4433C132.129 27.05 131.546 27.5555 130.799 27.96C130.068 28.3489 129.221 28.5433 128.256 28.5433C127.167 28.5433 126.172 28.2633 125.269 27.7033C124.383 27.1433 123.675 26.3578 123.146 25.3467C122.633 24.32 122.376 23.1455 122.376 21.8233ZM132.549 21.87C132.549 21.0767 132.394 20.4 132.083 19.84C131.772 19.2644 131.352 18.8289 130.823 18.5333C130.294 18.2222 129.726 18.0667 129.119 18.0667C128.513 18.0667 127.953 18.2144 127.439 18.51C126.926 18.8055 126.506 19.2411 126.179 19.8167C125.868 20.3767 125.713 21.0455 125.713 21.8233C125.713 22.6011 125.868 23.2855 126.179 23.8767C126.506 24.4522 126.926 24.8955 127.439 25.2066C127.968 25.5178 128.528 25.6733 129.119 25.6733C129.726 25.6733 130.294 25.5255 130.823 25.23C131.352 24.9189 131.772 24.4833 132.083 23.9233C132.394 23.3478 132.549 22.6633 132.549 21.87Z" fill="#475467"/>
<path d="M143.977 28.5433C142.919 28.5433 141.97 28.3567 141.13 27.9833C140.29 27.5944 139.621 27.0733 139.123 26.42C138.641 25.7667 138.377 25.0433 138.33 24.25H141.62C141.682 24.7478 141.923 25.16 142.343 25.4867C142.779 25.8133 143.315 25.9766 143.953 25.9766C144.575 25.9766 145.058 25.8522 145.4 25.6033C145.758 25.3544 145.937 25.0355 145.937 24.6467C145.937 24.2267 145.719 23.9155 145.283 23.7133C144.863 23.4955 144.187 23.2622 143.253 23.0133C142.289 22.78 141.495 22.5389 140.873 22.29C140.267 22.0411 139.738 21.66 139.287 21.1467C138.851 20.6333 138.633 19.9411 138.633 19.07C138.633 18.3544 138.835 17.7011 139.24 17.11C139.66 16.5189 140.251 16.0522 141.013 15.71C141.791 15.3678 142.701 15.1967 143.743 15.1967C145.283 15.1967 146.512 15.5855 147.43 16.3633C148.348 17.1255 148.853 18.16 148.947 19.4667H145.82C145.773 18.9533 145.555 18.5489 145.167 18.2533C144.793 17.9422 144.288 17.7867 143.65 17.7867C143.059 17.7867 142.6 17.8955 142.273 18.1133C141.962 18.3311 141.807 18.6344 141.807 19.0233C141.807 19.4589 142.024 19.7933 142.46 20.0267C142.895 20.2444 143.572 20.47 144.49 20.7033C145.423 20.9367 146.193 21.1778 146.8 21.4267C147.407 21.6755 147.928 22.0644 148.363 22.5933C148.814 23.1067 149.048 23.7911 149.063 24.6467C149.063 25.3933 148.853 26.0622 148.433 26.6533C148.029 27.2444 147.438 27.7111 146.66 28.0533C145.898 28.38 145.003 28.5433 143.977 28.5433Z" fill="#475467"/>
<path d="M156.691 28.5433C155.634 28.5433 154.685 28.3567 153.845 27.9833C153.005 27.5944 152.336 27.0733 151.838 26.42C151.356 25.7667 151.091 25.0433 151.045 24.25H154.335C154.397 24.7478 154.638 25.16 155.058 25.4867C155.494 25.8133 156.03 25.9766 156.668 25.9766C157.29 25.9766 157.772 25.8522 158.115 25.6033C158.472 25.3544 158.651 25.0355 158.651 24.6467C158.651 24.2267 158.434 23.9155 157.998 23.7133C157.578 23.4955 156.901 23.2622 155.968 23.0133C155.004 22.78 154.21 22.5389 153.588 22.29C152.981 22.0411 152.452 21.66 152.001 21.1467C151.566 20.6333 151.348 19.9411 151.348 19.07C151.348 18.3544 151.55 17.7011 151.955 17.11C152.375 16.5189 152.966 16.0522 153.728 15.71C154.506 15.3678 155.416 15.1967 156.458 15.1967C157.998 15.1967 159.227 15.5855 160.145 16.3633C161.062 17.1255 161.568 18.16 161.661 19.4667H158.535C158.488 18.9533 158.27 18.5489 157.881 18.2533C157.508 17.9422 157.002 17.7867 156.365 17.7867C155.774 17.7867 155.315 17.8955 154.988 18.1133C154.677 18.3311 154.521 18.6344 154.521 19.0233C154.521 19.4589 154.739 19.7933 155.175 20.0267C155.61 20.2444 156.287 20.47 157.205 20.7033C158.138 20.9367 158.908 21.1778 159.515 21.4267C160.121 21.6755 160.642 22.0644 161.078 22.5933C161.529 23.1067 161.762 23.7911 161.778 24.6467C161.778 25.3933 161.568 26.0622 161.148 26.6533C160.744 27.2444 160.152 27.7111 159.375 28.0533C158.612 28.38 157.718 28.5433 156.691 28.5433Z" fill="#475467"/>
</svg>
