<svg width="157" height="40" viewBox="0 0 157 40" fill="none" xmlns="http://www.w3.org/2000/svg">
<path fill-rule="evenodd" clip-rule="evenodd" d="M19.2222 30.3888C24.9599 30.3888 29.6111 25.7376 29.6111 20C29.6111 14.2623 24.9599 9.61107 19.2222 9.61107C13.4846 9.61107 8.83336 14.2623 8.83336 20C8.83336 25.7376 13.4846 30.3888 19.2222 30.3888ZM19.2222 38.3333C29.3475 38.3333 37.5556 30.1252 37.5556 20C37.5556 9.87474 29.3475 1.66663 19.2222 1.66663C9.09703 1.66663 0.888916 9.87474 0.888916 20C0.888916 30.1252 9.09703 38.3333 19.2222 38.3333Z" fill="#667085"/>
<path d="M19.432 20.4014C21.3412 18.4922 24.4367 18.4922 26.3459 20.4014L35.8525 29.9081C37.7618 31.8173 37.7618 34.9128 35.8525 36.822C33.9433 38.7312 30.8478 38.7312 28.9386 36.822L19.432 27.3154C17.5227 25.4061 17.5227 22.3107 19.432 20.4014Z" fill="#98A2B3"/>
<path d="M22.1013 29.9847L28.1391 36.0225C31.0351 34.4074 33.4478 32.0298 35.1059 29.1614L29.1176 23.1731C28.0657 26.4559 25.4255 29.0279 22.1013 29.9847Z" fill="#98A2B3"/>
<path d="M67.1556 30.0833C66.6267 30.7366 65.9811 31.2344 65.2189 31.5766C64.4722 31.9189 63.6478 32.09 62.7456 32.09C61.5322 32.09 60.4356 31.8255 59.4556 31.2966C58.4756 30.7833 57.3556 29.8655 56.0956 28.5433C54.6178 28.3566 53.2956 27.8822 52.1289 27.12C50.9778 26.3577 50.0756 25.3778 49.4222 24.18C48.7845 22.9666 48.4656 21.6289 48.4656 20.1666C48.4656 18.5644 48.8467 17.1255 49.6089 15.85C50.3867 14.5589 51.4522 13.5477 52.8056 12.8166C54.1745 12.0855 55.7067 11.72 57.4022 11.72C59.0978 11.72 60.6222 12.0855 61.9756 12.8166C63.3289 13.5477 64.3945 14.5589 65.1722 15.85C65.95 17.1255 66.3389 18.5644 66.3389 20.1666C66.3389 22.0644 65.8022 23.7289 64.7289 25.16C63.6711 26.5911 62.2634 27.5866 60.5056 28.1466C60.8945 28.5511 61.2678 28.8389 61.6256 29.01C61.9989 29.1966 62.3956 29.29 62.8156 29.29C63.8267 29.29 64.7134 28.8855 65.4756 28.0766L67.1556 30.0833ZM52.2922 20.1666C52.2922 21.1777 52.51 22.08 52.9456 22.8733C53.3967 23.6666 54.0111 24.2889 54.7889 24.74C55.5667 25.1755 56.4378 25.3933 57.4022 25.3933C58.3667 25.3933 59.2378 25.1755 60.0156 24.74C60.7934 24.2889 61.4 23.6666 61.8356 22.8733C62.2867 22.08 62.5122 21.1777 62.5122 20.1666C62.5122 19.1555 62.2867 18.2533 61.8356 17.46C61.4 16.6666 60.7934 16.0522 60.0156 15.6166C59.2378 15.1655 58.3667 14.94 57.4022 14.94C56.4378 14.94 55.5667 15.1655 54.7889 15.6166C54.0111 16.0522 53.3967 16.6666 52.9456 17.46C52.51 18.2533 52.2922 19.1555 52.2922 20.1666Z" fill="#475467"/>
<path d="M81.5697 15.78V28.3333H78.1164V26.84C77.6342 27.3844 77.0586 27.8044 76.3897 28.1C75.7209 28.38 74.9975 28.52 74.2197 28.52C72.5709 28.52 71.2642 28.0455 70.2997 27.0966C69.3353 26.1478 68.8531 24.74 68.8531 22.8733V15.78H72.4931V22.3366C72.4931 24.3589 73.3409 25.37 75.0364 25.37C75.9075 25.37 76.6075 25.09 77.1364 24.53C77.6653 23.9544 77.9297 23.1066 77.9297 21.9866V15.78H81.5697Z" fill="#475467"/>
<path d="M90.9153 28.52C89.5931 28.52 88.4031 28.2477 87.3453 27.7033C86.3031 27.1433 85.4864 26.3733 84.8953 25.3933C84.3042 24.4133 84.0086 23.3011 84.0086 22.0566C84.0086 20.8122 84.3042 19.7 84.8953 18.72C85.4864 17.74 86.3031 16.9777 87.3453 16.4333C88.4031 15.8733 89.5931 15.5933 90.9153 15.5933C92.2375 15.5933 93.4197 15.8733 94.462 16.4333C95.5042 16.9777 96.3208 17.74 96.912 18.72C97.5031 19.7 97.7986 20.8122 97.7986 22.0566C97.7986 23.3011 97.5031 24.4133 96.912 25.3933C96.3208 26.3733 95.5042 27.1433 94.462 27.7033C93.4197 28.2477 92.2375 28.52 90.9153 28.52ZM90.9153 25.5333C91.8486 25.5333 92.6108 25.2222 93.202 24.6C93.8086 23.9622 94.112 23.1144 94.112 22.0566C94.112 20.9989 93.8086 20.1589 93.202 19.5366C92.6108 18.8989 91.8486 18.58 90.9153 18.58C89.982 18.58 89.212 18.8989 88.6053 19.5366C87.9986 20.1589 87.6953 20.9989 87.6953 22.0566C87.6953 23.1144 87.9986 23.9622 88.6053 24.6C89.212 25.2222 89.982 25.5333 90.9153 25.5333Z" fill="#475467"/>
<path d="M108.328 27.7266C107.971 27.9911 107.527 28.1933 106.998 28.3333C106.485 28.4578 105.941 28.52 105.365 28.52C103.872 28.52 102.713 28.1389 101.888 27.3766C101.079 26.6144 100.675 25.4944 100.675 24.0166V18.86H98.7383V16.06H100.675V13.0033H104.315V16.06H107.442V18.86H104.315V23.97C104.315 24.4989 104.447 24.9111 104.712 25.2066C104.992 25.4866 105.381 25.6266 105.878 25.6266C106.454 25.6266 106.944 25.4711 107.348 25.16L108.328 27.7266Z" fill="#475467"/>
<path d="M110.372 15.78H114.012V28.3333H110.372V15.78ZM112.192 14.03C111.523 14.03 110.978 13.8355 110.558 13.4466C110.138 13.0577 109.928 12.5755 109.928 12C109.928 11.4244 110.138 10.9422 110.558 10.5533C110.978 10.1644 111.523 9.96997 112.192 9.96997C112.861 9.96997 113.405 10.1566 113.825 10.53C114.245 10.9033 114.455 11.37 114.455 11.93C114.455 12.5366 114.245 13.0422 113.825 13.4466C113.405 13.8355 112.861 14.03 112.192 14.03Z" fill="#475467"/>
<path d="M129.687 22.1033C129.687 22.15 129.663 22.4766 129.617 23.0833H120.12C120.291 23.8611 120.695 24.4755 121.333 24.9266C121.971 25.3777 122.764 25.6033 123.713 25.6033C124.367 25.6033 124.942 25.51 125.44 25.3233C125.953 25.1211 126.428 24.81 126.863 24.39L128.8 26.49C127.618 27.8433 125.891 28.52 123.62 28.52C122.204 28.52 120.952 28.2477 119.863 27.7033C118.774 27.1433 117.934 26.3733 117.343 25.3933C116.752 24.4133 116.457 23.3011 116.457 22.0566C116.457 20.8277 116.744 19.7233 117.32 18.7433C117.911 17.7478 118.712 16.9777 119.723 16.4333C120.75 15.8733 121.893 15.5933 123.153 15.5933C124.382 15.5933 125.494 15.8577 126.49 16.3866C127.485 16.9155 128.263 17.6777 128.823 18.6733C129.399 19.6533 129.687 20.7966 129.687 22.1033ZM123.177 18.3466C122.352 18.3466 121.66 18.58 121.1 19.0466C120.54 19.5133 120.198 20.1511 120.073 20.96H126.257C126.132 20.1666 125.79 19.5366 125.23 19.07C124.67 18.5878 123.985 18.3466 123.177 18.3466Z" fill="#475467"/>
<path d="M139.74 15.5933C141.295 15.5933 142.548 16.06 143.497 16.9933C144.461 17.9266 144.943 19.3111 144.943 21.1466V28.3333H141.303V21.7066C141.303 20.7111 141.085 19.9722 140.65 19.49C140.214 18.9922 139.584 18.7433 138.76 18.7433C137.842 18.7433 137.111 19.0311 136.567 19.6066C136.022 20.1666 135.75 21.0066 135.75 22.1266V28.3333H132.11V15.78H135.587V17.25C136.069 16.7211 136.668 16.3166 137.383 16.0366C138.099 15.7411 138.884 15.5933 139.74 15.5933Z" fill="#475467"/>
<path d="M156.339 27.7266C155.982 27.9911 155.538 28.1933 155.009 28.3333C154.496 28.4578 153.952 28.52 153.376 28.52C151.883 28.52 150.724 28.1389 149.899 27.3766C149.091 26.6144 148.686 25.4944 148.686 24.0166V18.86H146.749V16.06H148.686V13.0033H152.326V16.06H155.453V18.86H152.326V23.97C152.326 24.4989 152.458 24.9111 152.723 25.2066C153.003 25.4866 153.392 25.6266 153.889 25.6266C154.465 25.6266 154.955 25.4711 155.359 25.16L156.339 27.7266Z" fill="#475467"/>
</svg>
