<svg width="157" height="40" viewBox="0 0 157 40" fill="none" xmlns="http://www.w3.org/2000/svg">
<path fill-rule="evenodd" clip-rule="evenodd" d="M18.6668 30.3888C24.4044 30.3888 29.0557 25.7376 29.0557 20C29.0557 14.2623 24.4044 9.61107 18.6668 9.61107C12.9292 9.61107 8.27794 14.2623 8.27794 20C8.27794 25.7376 12.9292 30.3888 18.6668 30.3888ZM18.6668 38.3333C28.792 38.3333 37.0002 30.1252 37.0002 20C37.0002 9.87474 28.792 1.66663 18.6668 1.66663C8.54161 1.66663 0.333496 9.87474 0.333496 20C0.333496 30.1252 8.54161 38.3333 18.6668 38.3333Z" fill="#667085"/>
<path d="M18.8765 20.4014C20.7858 18.4922 23.8812 18.4922 25.7905 20.4014L35.2971 29.9081C37.2063 31.8173 37.2063 34.9128 35.2971 36.822C33.3879 38.7312 30.2924 38.7312 28.3832 36.822L18.8765 27.3154C16.9673 25.4061 16.9673 22.3107 18.8765 20.4014Z" fill="#98A2B3"/>
<path d="M21.5459 29.9847L27.5837 36.0225C30.4797 34.4074 32.8924 32.0298 34.5505 29.1614L28.5621 23.1731C27.5103 26.4559 24.8701 29.0279 21.5459 29.9847Z" fill="#98A2B3"/>
<path d="M66.6002 30.0833C66.0713 30.7366 65.4257 31.2344 64.6635 31.5766C63.9168 31.9189 63.0924 32.09 62.1902 32.09C60.9768 32.09 59.8802 31.8255 58.9002 31.2966C57.9202 30.7833 56.8002 29.8655 55.5402 28.5433C54.0624 28.3566 52.7402 27.8822 51.5735 27.12C50.4224 26.3577 49.5202 25.3778 48.8668 24.18C48.229 22.9666 47.9102 21.6289 47.9102 20.1666C47.9102 18.5644 48.2913 17.1255 49.0535 15.85C49.8313 14.5589 50.8968 13.5477 52.2502 12.8166C53.619 12.0855 55.1513 11.72 56.8468 11.72C58.5424 11.72 60.0668 12.0855 61.4202 12.8166C62.7735 13.5477 63.839 14.5589 64.6168 15.85C65.3946 17.1255 65.7835 18.5644 65.7835 20.1666C65.7835 22.0644 65.2468 23.7289 64.1735 25.16C63.1157 26.5911 61.7079 27.5866 59.9502 28.1466C60.339 28.5511 60.7124 28.8389 61.0702 29.01C61.4435 29.1966 61.8402 29.29 62.2602 29.29C63.2713 29.29 64.1579 28.8855 64.9202 28.0766L66.6002 30.0833ZM51.7368 20.1666C51.7368 21.1777 51.9546 22.08 52.3902 22.8733C52.8413 23.6666 53.4557 24.2889 54.2335 24.74C55.0113 25.1755 55.8824 25.3933 56.8468 25.3933C57.8113 25.3933 58.6824 25.1755 59.4602 24.74C60.2379 24.2889 60.8446 23.6666 61.2802 22.8733C61.7313 22.08 61.9568 21.1777 61.9568 20.1666C61.9568 19.1555 61.7313 18.2533 61.2802 17.46C60.8446 16.6666 60.2379 16.0522 59.4602 15.6166C58.6824 15.1655 57.8113 14.94 56.8468 14.94C55.8824 14.94 55.0113 15.1655 54.2335 15.6166C53.4557 16.0522 52.8413 16.6666 52.3902 17.46C51.9546 18.2533 51.7368 19.1555 51.7368 20.1666Z" fill="#475467"/>
<path d="M81.0143 15.78V28.3333H77.561V26.84C77.0788 27.3844 76.5032 27.8044 75.8343 28.1C75.1654 28.38 74.4421 28.52 73.6643 28.52C72.0154 28.52 70.7088 28.0455 69.7443 27.0966C68.7799 26.1478 68.2977 24.74 68.2977 22.8733V15.78H71.9377V22.3366C71.9377 24.3589 72.7854 25.37 74.481 25.37C75.3521 25.37 76.0521 25.09 76.581 24.53C77.1099 23.9544 77.3743 23.1066 77.3743 21.9866V15.78H81.0143Z" fill="#475467"/>
<path d="M90.3599 28.52C89.0376 28.52 87.8476 28.2477 86.7899 27.7033C85.7477 27.1433 84.931 26.3733 84.3399 25.3933C83.7488 24.4133 83.4532 23.3011 83.4532 22.0566C83.4532 20.8122 83.7488 19.7 84.3399 18.72C84.931 17.74 85.7477 16.9777 86.7899 16.4333C87.8476 15.8733 89.0376 15.5933 90.3599 15.5933C91.6821 15.5933 92.8643 15.8733 93.9065 16.4333C94.9488 16.9777 95.7654 17.74 96.3565 18.72C96.9476 19.7 97.2432 20.8122 97.2432 22.0566C97.2432 23.3011 96.9476 24.4133 96.3565 25.3933C95.7654 26.3733 94.9488 27.1433 93.9065 27.7033C92.8643 28.2477 91.6821 28.52 90.3599 28.52ZM90.3599 25.5333C91.2932 25.5333 92.0554 25.2222 92.6465 24.6C93.2532 23.9622 93.5565 23.1144 93.5565 22.0566C93.5565 20.9989 93.2532 20.1589 92.6465 19.5366C92.0554 18.8989 91.2932 18.58 90.3599 18.58C89.4265 18.58 88.6565 18.8989 88.0499 19.5366C87.4432 20.1589 87.1399 20.9989 87.1399 22.0566C87.1399 23.1144 87.4432 23.9622 88.0499 24.6C88.6565 25.2222 89.4265 25.5333 90.3599 25.5333Z" fill="#475467"/>
<path d="M107.773 27.7266C107.415 27.9911 106.972 28.1933 106.443 28.3333C105.93 28.4578 105.385 28.52 104.81 28.52C103.316 28.52 102.157 28.1389 101.333 27.3766C100.524 26.6144 100.12 25.4944 100.12 24.0166V18.86H98.1829V16.06H100.12V13.0033H103.76V16.06H106.886V18.86H103.76V23.97C103.76 24.4989 103.892 24.9111 104.156 25.2066C104.436 25.4866 104.825 25.6266 105.323 25.6266C105.898 25.6266 106.388 25.4711 106.793 25.16L107.773 27.7266Z" fill="#475467"/>
<path d="M109.816 15.78H113.456V28.3333H109.816V15.78ZM111.636 14.03C110.967 14.03 110.423 13.8355 110.003 13.4466C109.583 13.0577 109.373 12.5755 109.373 12C109.373 11.4244 109.583 10.9422 110.003 10.5533C110.423 10.1644 110.967 9.96997 111.636 9.96997C112.305 9.96997 112.85 10.1566 113.27 10.53C113.69 10.9033 113.9 11.37 113.9 11.93C113.9 12.5366 113.69 13.0422 113.27 13.4466C112.85 13.8355 112.305 14.03 111.636 14.03Z" fill="#475467"/>
<path d="M129.131 22.1033C129.131 22.15 129.108 22.4766 129.061 23.0833H119.564C119.736 23.8611 120.14 24.4755 120.778 24.9266C121.416 25.3777 122.209 25.6033 123.158 25.6033C123.811 25.6033 124.387 25.51 124.884 25.3233C125.398 25.1211 125.872 24.81 126.308 24.39L128.244 26.49C127.062 27.8433 125.336 28.52 123.064 28.52C121.649 28.52 120.397 28.2477 119.308 27.7033C118.219 27.1433 117.379 26.3733 116.788 25.3933C116.197 24.4133 115.901 23.3011 115.901 22.0566C115.901 20.8277 116.189 19.7233 116.764 18.7433C117.356 17.7478 118.157 16.9777 119.168 16.4333C120.194 15.8733 121.338 15.5933 122.598 15.5933C123.827 15.5933 124.939 15.8577 125.934 16.3866C126.93 16.9155 127.708 17.6777 128.268 18.6733C128.843 19.6533 129.131 20.7966 129.131 22.1033ZM122.621 18.3466C121.797 18.3466 121.104 18.58 120.544 19.0466C119.984 19.5133 119.642 20.1511 119.518 20.96H125.701C125.577 20.1666 125.234 19.5366 124.674 19.07C124.114 18.5878 123.43 18.3466 122.621 18.3466Z" fill="#475467"/>
<path d="M139.185 15.5933C140.74 15.5933 141.992 16.06 142.941 16.9933C143.906 17.9266 144.388 19.3111 144.388 21.1466V28.3333H140.748V21.7066C140.748 20.7111 140.53 19.9722 140.094 19.49C139.659 18.9922 139.029 18.7433 138.205 18.7433C137.287 18.7433 136.556 19.0311 136.011 19.6066C135.467 20.1666 135.195 21.0066 135.195 22.1266V28.3333H131.554V15.78H135.031V17.25C135.513 16.7211 136.112 16.3166 136.828 16.0366C137.543 15.7411 138.329 15.5933 139.185 15.5933Z" fill="#475467"/>
<path d="M155.784 27.7266C155.426 27.9911 154.983 28.1933 154.454 28.3333C153.941 28.4578 153.396 28.52 152.821 28.52C151.327 28.52 150.168 28.1389 149.344 27.3766C148.535 26.6144 148.131 25.4944 148.131 24.0166V18.86H146.194V16.06H148.131V13.0033H151.771V16.06H154.897V18.86H151.771V23.97C151.771 24.4989 151.903 24.9111 152.167 25.2066C152.447 25.4866 152.836 25.6266 153.334 25.6266C153.91 25.6266 154.4 25.4711 154.804 25.16L155.784 27.7266Z" fill="#475467"/>
</svg>
