<svg width="122" height="40" viewBox="0 0 122 40" fill="none" xmlns="http://www.w3.org/2000/svg">
<path d="M11.1204 18.5984C11.8056 16.0415 14.4339 13.4133 16.9907 12.728L32.9316 8.45608C35.4885 7.77086 37.0057 9.28815 36.3205 11.845L32.0485 27.7859C31.3633 30.3427 28.7351 32.971 26.1782 33.6562L10.2374 37.9282C7.68048 38.6134 6.16319 37.0961 6.84841 34.5392L11.1204 18.5984Z" fill="#98A2B3"/>
<path d="M4.72976 12.2078C5.41498 9.65089 8.04323 7.02264 10.6001 6.33742L26.541 2.06545C29.0978 1.38023 30.6151 2.89752 29.9299 5.45441L25.6579 21.3952C24.9727 23.9521 22.3445 26.5804 19.7876 27.2656L3.84675 31.5376C1.28986 32.2228 -0.227435 30.7055 0.457785 28.1486L4.72976 12.2078Z" fill="#667085"/>
<path d="M51.1324 26.1867H56.6157V28.3334H48.4724V12.1167H51.1324V26.1867Z" fill="#475467"/>
<path d="M57.9536 21.8467C57.9536 20.5556 58.218 19.4123 58.7469 18.4167C59.2914 17.4211 60.0225 16.6511 60.9402 16.1067C61.8736 15.5467 62.9002 15.2667 64.0202 15.2667C65.0314 15.2667 65.9102 15.4689 66.6569 15.8734C67.4191 16.2623 68.0258 16.7523 68.4769 17.3434V15.4767H71.1602V28.3334H68.4769V26.42C68.0258 27.0267 67.4114 27.5323 66.6336 27.9367C65.8558 28.3411 64.9691 28.5434 63.9736 28.5434C62.8691 28.5434 61.858 28.2634 60.9402 27.7034C60.0225 27.1278 59.2914 26.3345 58.7469 25.3234C58.218 24.2967 57.9536 23.1378 57.9536 21.8467ZM68.4769 21.8934C68.4769 21.0067 68.2902 20.2367 67.9169 19.5834C67.5591 18.93 67.0847 18.4323 66.4936 18.09C65.9025 17.7478 65.2647 17.5767 64.5802 17.5767C63.8958 17.5767 63.258 17.7478 62.6669 18.09C62.0758 18.4167 61.5936 18.9067 61.2202 19.56C60.8625 20.1978 60.6836 20.96 60.6836 21.8467C60.6836 22.7334 60.8625 23.5111 61.2202 24.18C61.5936 24.8489 62.0758 25.3623 62.6669 25.72C63.2736 26.0623 63.9114 26.2334 64.5802 26.2334C65.2647 26.2334 65.9025 26.0623 66.4936 25.72C67.0847 25.3778 67.5591 24.88 67.9169 24.2267C68.2902 23.5578 68.4769 22.78 68.4769 21.8934Z" fill="#475467"/>
<path d="M86.2274 15.4767L78.3407 34.3767H75.5874L78.2007 28.1234L73.1374 15.4767H76.1007L79.7174 25.2767L83.474 15.4767H86.2274Z" fill="#475467"/>
<path d="M100.018 21.59C100.018 22.0723 99.987 22.5078 99.9248 22.8967H90.1014C90.1792 23.9234 90.5603 24.7478 91.2448 25.37C91.9292 25.9923 92.7692 26.3034 93.7648 26.3034C95.1959 26.3034 96.207 25.7045 96.7981 24.5067H99.6681C99.2792 25.6889 98.5714 26.6611 97.5448 27.4234C96.5337 28.17 95.2737 28.5434 93.7648 28.5434C92.5359 28.5434 91.4314 28.2711 90.4514 27.7267C89.487 27.1667 88.7248 26.3889 88.1648 25.3934C87.6203 24.3823 87.3481 23.2156 87.3481 21.8934C87.3481 20.5711 87.6126 19.4123 88.1414 18.4167C88.6859 17.4056 89.4403 16.6278 90.4048 16.0834C91.3848 15.5389 92.5048 15.2667 93.7648 15.2667C94.9781 15.2667 96.0592 15.5311 97.0081 16.06C97.957 16.5889 98.6959 17.3356 99.2248 18.3C99.7537 19.2489 100.018 20.3456 100.018 21.59ZM97.2414 20.75C97.2259 19.77 96.8759 18.9845 96.1914 18.3934C95.507 17.8023 94.6592 17.5067 93.6481 17.5067C92.7303 17.5067 91.9448 17.8023 91.2914 18.3934C90.6381 18.9689 90.2492 19.7545 90.1248 20.75H97.2414Z" fill="#475467"/>
<path d="M105.296 17.3434C105.685 16.69 106.198 16.1845 106.836 15.8267C107.489 15.4534 108.259 15.2667 109.146 15.2667V18.02H108.469C107.427 18.02 106.634 18.2845 106.089 18.8134C105.56 19.3423 105.296 20.26 105.296 21.5667V28.3334H102.636V15.4767H105.296V17.3434Z" fill="#475467"/>
<path d="M116.258 28.5434C115.246 28.5434 114.336 28.3645 113.528 28.0067C112.734 27.6334 112.104 27.1356 111.638 26.5134C111.171 25.8756 110.922 25.1678 110.891 24.39H113.644C113.691 24.9345 113.948 25.3934 114.414 25.7667C114.896 26.1245 115.495 26.3034 116.211 26.3034C116.958 26.3034 117.533 26.1634 117.938 25.8834C118.358 25.5878 118.568 25.2145 118.568 24.7634C118.568 24.2811 118.334 23.9234 117.868 23.69C117.416 23.4567 116.693 23.2 115.698 22.92C114.733 22.6556 113.948 22.3989 113.341 22.15C112.734 21.9011 112.205 21.52 111.754 21.0067C111.319 20.4934 111.101 19.8167 111.101 18.9767C111.101 18.2923 111.303 17.67 111.708 17.11C112.112 16.5345 112.688 16.0834 113.434 15.7567C114.196 15.43 115.068 15.2667 116.048 15.2667C117.51 15.2667 118.684 15.64 119.571 16.3867C120.473 17.1178 120.955 18.1211 121.018 19.3967H118.358C118.311 18.8211 118.078 18.3623 117.658 18.02C117.238 17.6778 116.67 17.5067 115.954 17.5067C115.254 17.5067 114.718 17.6389 114.344 17.9034C113.971 18.1678 113.784 18.5178 113.784 18.9534C113.784 19.2956 113.909 19.5834 114.158 19.8167C114.406 20.05 114.71 20.2367 115.068 20.3767C115.425 20.5011 115.954 20.6645 116.654 20.8667C117.588 21.1156 118.35 21.3723 118.941 21.6367C119.548 21.8856 120.069 22.2589 120.504 22.7567C120.94 23.2545 121.165 23.9156 121.181 24.74C121.181 25.4711 120.979 26.1245 120.574 26.7C120.17 27.2756 119.594 27.7267 118.848 28.0534C118.116 28.38 117.253 28.5434 116.258 28.5434Z" fill="#475467"/>
</svg>
