<svg width="134" height="40" viewBox="0 0 134 40" fill="none" xmlns="http://www.w3.org/2000/svg">
<path d="M18.3333 1.66663C8.20807 1.66663 0 9.87474 0 20C0 30.1252 8.20807 38.3333 18.3333 38.3333C27.4175 38.3333 34.9585 31.7263 36.4132 23.0555H36.2816C34.9248 28.327 30.1395 32.2222 24.4444 32.2222C17.6943 32.2222 12.2222 26.7501 12.2222 20C12.2222 13.2498 17.6943 7.77774 24.4444 7.77774C30.1395 7.77774 34.9248 11.6729 36.2816 16.9444H36.4132C34.9585 8.27361 27.4175 1.66663 18.3333 1.66663Z" fill="#98A2B3"/>
<path d="M0 20C0 9.87474 8.20811 1.66663 18.3333 1.66663C27.4175 1.66663 34.9585 8.27361 36.4132 16.9444H24.0594C22.7026 11.6729 17.9173 7.77774 12.2222 7.77774C5.47207 7.77774 0 13.2498 0 20Z" fill="#667085"/>
<path d="M0 19.9999C0 30.1251 8.20811 38.3333 18.3333 38.3333C27.4175 38.3333 34.9585 31.7263 36.4132 23.0555H24.0594C22.7026 28.327 17.9173 32.2221 12.2222 32.2221C5.47207 32.2221 0 26.7501 0 19.9999Z" fill="#667085"/>
<path d="M62.8659 17.0892C62.3438 13.3191 59.4438 11.1316 55.6819 11.1316C51.2489 11.1316 47.9097 14.3631 47.9097 19.8484C47.9097 25.3255 51.2075 28.5653 55.6819 28.5653C59.7172 28.5653 62.3936 25.9552 62.8659 22.7154L59.7669 22.6988C59.3775 24.6875 57.7534 25.8061 55.7234 25.8061C52.9724 25.8061 51.0003 23.7429 51.0003 19.8484C51.0003 16.0203 52.9558 13.8908 55.7316 13.8908C57.7948 13.8908 59.4106 15.0591 59.7669 17.0892H62.8659Z" fill="#475467"/>
<path d="M69.2109 28.5902C71.2078 28.5902 72.401 27.6538 72.9478 26.585H73.0473V28.3333H75.9308V19.8153C75.9308 16.4512 73.1881 15.4403 70.7603 15.4403C68.084 15.4403 66.029 16.6335 65.3662 18.9536L68.1668 19.3513C68.4651 18.4813 69.3103 17.7355 70.7769 17.7355C72.169 17.7355 72.9313 18.4481 72.9313 19.6993V19.749C72.9313 20.6108 72.0281 20.6522 69.7826 20.8925C67.3134 21.1576 64.9519 21.8951 64.9519 24.762C64.9519 27.2644 66.7831 28.5902 69.2109 28.5902ZM69.9897 26.3861C68.7386 26.3861 67.8437 25.8144 67.8437 24.7123C67.8437 23.5606 68.8463 23.08 70.1886 22.8894C70.9758 22.7817 72.5501 22.5828 72.9396 22.268V23.7677C72.9396 25.1846 71.7961 26.3861 69.9897 26.3861Z" fill="#475467"/>
<path d="M85.3022 15.606H82.7916V12.5568H79.7921V15.606H77.9857V17.9261H79.7921V25.0023C79.7755 27.397 81.5155 28.5736 83.7693 28.5073C84.6228 28.4824 85.2111 28.3167 85.5342 28.209L85.0288 25.8641C84.8631 25.9055 84.5234 25.9801 84.1505 25.9801C83.3965 25.9801 82.7916 25.7149 82.7916 24.5052V17.9261H85.3022V15.606Z" fill="#475467"/>
<path d="M91.4732 28.5902C93.4701 28.5902 94.6633 27.6538 95.2102 26.585H95.3096V28.3333H98.1932V19.8153C98.1932 16.4512 95.4505 15.4403 93.0227 15.4403C90.3463 15.4403 88.2914 16.6335 87.6285 18.9536L90.4292 19.3513C90.7275 18.4813 91.5727 17.7355 93.0393 17.7355C94.4313 17.7355 95.1936 18.4481 95.1936 19.6993V19.749C95.1936 20.6108 94.2905 20.6522 92.045 20.8925C89.5757 21.1576 87.2142 21.8951 87.2142 24.762C87.2142 27.2644 89.0454 28.5902 91.4732 28.5902ZM92.2521 26.3861C91.0009 26.3861 90.106 25.8144 90.106 24.7123C90.106 23.5606 91.1086 23.08 92.451 22.8894C93.2381 22.7817 94.8125 22.5828 95.2019 22.268V23.7677C95.2019 25.1846 94.0584 26.3861 92.2521 26.3861Z" fill="#475467"/>
<path d="M104.209 11.3636H101.209V28.3333H104.209V11.3636Z" fill="#475467"/>
<path d="M112.845 28.5819C116.574 28.5819 118.943 25.9552 118.943 22.0194C118.943 18.0752 116.574 15.4403 112.845 15.4403C109.116 15.4403 106.746 18.0752 106.746 22.0194C106.746 25.9552 109.116 28.5819 112.845 28.5819ZM112.861 26.1789C110.798 26.1789 109.787 24.3395 109.787 22.0111C109.787 19.6827 110.798 17.8184 112.861 17.8184C114.891 17.8184 115.902 19.6827 115.902 22.0111C115.902 24.3395 114.891 26.1789 112.861 26.1789Z" fill="#475467"/>
<path d="M127.024 33.3712C130.463 33.3712 132.998 31.7968 132.998 28.5404V15.606H130.04V17.7107H129.875C129.419 16.7909 128.466 15.4403 126.22 15.4403C123.279 15.4403 120.967 17.7438 120.967 21.9282C120.967 26.0795 123.279 28.151 126.212 28.151C128.391 28.151 129.411 26.9827 129.875 26.0464H130.024V28.4576C130.024 30.3302 128.781 31.1008 127.074 31.1008C125.268 31.1008 124.472 30.2474 124.108 29.5016L121.406 30.1562C121.953 31.9377 123.784 33.3712 127.024 33.3712ZM127.049 25.7978C125.069 25.7978 124.025 24.2566 124.025 21.9117C124.025 19.5999 125.052 17.9012 127.049 17.9012C128.98 17.9012 130.04 19.5004 130.04 21.9117C130.04 24.3395 128.963 25.7978 127.049 25.7978Z" fill="#475467"/>
</svg>
