<svg width="154" height="40" viewBox="0 0 154 40" fill="none" xmlns="http://www.w3.org/2000/svg">
<path d="M13.873 27.8571C21.1053 27.8571 26.9682 21.9942 26.9682 14.7619C26.9682 13.9422 26.8929 13.1401 26.7488 12.3622C25.9709 12.2181 25.1688 12.1428 24.3491 12.1428C17.1168 12.1428 11.2539 18.0058 11.2539 25.2381C11.2539 26.0577 11.3292 26.8598 11.4733 27.6377C12.2512 27.7818 13.0533 27.8571 13.873 27.8571Z" fill="#667085"/>
<path fill-rule="evenodd" clip-rule="evenodd" d="M11.4734 27.6377C5.38715 26.5106 0.777832 21.1745 0.777832 14.7619C0.777832 7.52956 6.64077 1.66663 13.8731 1.66663C20.2857 1.66663 25.6218 6.27594 26.7489 12.3622C25.971 12.2181 25.1689 12.1428 24.3493 12.1428C17.117 12.1428 11.254 18.0058 11.254 25.2381C11.254 26.0577 11.3293 26.8598 11.4734 27.6377Z" fill="#667085"/>
<path fill-rule="evenodd" clip-rule="evenodd" d="M13.8731 27.8571C21.1054 27.8571 26.9683 21.9942 26.9683 14.7619C26.9683 13.9422 26.893 13.1401 26.7489 12.3622C32.8352 13.4893 37.4445 18.8254 37.4445 25.238C37.4445 32.4703 31.5816 38.3333 24.3493 38.3333C17.9366 38.3333 12.6005 33.724 11.4734 27.6377C12.2513 27.7818 13.0534 27.8571 13.8731 27.8571Z" fill="#98A2B3"/>
<path d="M62.6345 24.0866C62.1678 25.5955 61.3511 26.7233 60.1845 27.47C59.0178 28.2011 57.6567 28.5666 56.1012 28.5666C54.5767 28.5666 53.2545 28.2478 52.1345 27.61C51.03 26.9722 50.1745 26.0622 49.5678 24.88C48.9767 23.6978 48.6812 22.2822 48.6812 20.6333C48.6812 18.9844 48.9845 17.5689 49.5912 16.3866C50.1978 15.2044 51.0534 14.2944 52.1578 13.6566C53.2623 13.0189 54.5612 12.7 56.0545 12.7C57.6256 12.7 58.9712 13.0344 60.0912 13.7033C61.2267 14.3566 62.0045 15.3522 62.4245 16.69L59.5078 17.9266C59.2434 16.9933 58.8389 16.3322 58.2945 15.9433C57.75 15.5389 57.05 15.3366 56.1945 15.3366C54.9189 15.3366 53.9 15.7955 53.1378 16.7133C52.3912 17.6155 52.0178 18.9222 52.0178 20.6333C52.0178 22.3289 52.3756 23.6355 53.0912 24.5533C53.8067 25.4711 54.8412 25.93 56.1945 25.93C57.0345 25.93 57.7578 25.7044 58.3645 25.2533C58.9867 24.8022 59.4223 24.1178 59.6712 23.2L62.6345 24.0866Z" fill="#475467"/>
<path d="M66.6622 14.9866C65.34 14.9866 64.6789 14.4189 64.6789 13.2833C64.6789 12.1322 65.34 11.5566 66.6622 11.5566C67.9844 11.5566 68.6455 12.1322 68.6455 13.2833C68.6455 14.4189 67.9844 14.9866 66.6622 14.9866ZM68.2489 16.6666V28.3333H65.0522V16.6666H68.2489Z" fill="#475467"/>
<path d="M71.6375 28.3333V16.6666H74.4142L74.6242 18.9533C74.9197 18.16 75.3631 17.5455 75.9542 17.11C76.5608 16.6589 77.3231 16.4333 78.2408 16.4333C78.7853 16.4333 79.2053 16.5189 79.5008 16.69L79.1275 19.3733C78.9719 19.3266 78.7775 19.2878 78.5442 19.2566C78.3264 19.21 78.0386 19.1866 77.6808 19.1866C77.1986 19.1866 76.7397 19.3033 76.3042 19.5366C75.8842 19.7544 75.5342 20.0966 75.2542 20.5633C74.9742 21.0144 74.8342 21.59 74.8342 22.29V28.3333H71.6375Z" fill="#475467"/>
<path d="M86.55 16.4333C88.1056 16.4333 89.3112 16.7678 90.1667 17.4366C91.0378 18.1055 91.6134 18.9144 91.8934 19.8633L88.9067 20.9366C88.5956 19.5211 87.8256 18.8133 86.5967 18.8133C85.71 18.8133 85.0178 19.1244 84.5201 19.7466C84.0378 20.3689 83.7967 21.2944 83.7967 22.5233C83.7967 23.7678 84.0456 24.6933 84.5434 25.3C85.0567 25.8911 85.7489 26.1866 86.62 26.1866C87.9734 26.1866 88.7823 25.4944 89.0467 24.11L91.94 25.0433C91.6756 26.0855 91.0845 26.9333 90.1667 27.5866C89.2645 28.24 88.09 28.5666 86.6434 28.5666C85.43 28.5666 84.3645 28.3255 83.4467 27.8433C82.5445 27.3611 81.8445 26.6689 81.3467 25.7666C80.8489 24.8644 80.6 23.7755 80.6 22.5C80.6 21.2244 80.8489 20.1355 81.3467 19.2333C81.8601 18.3311 82.56 17.6389 83.4467 17.1566C84.3489 16.6744 85.3834 16.4333 86.55 16.4333Z" fill="#475467"/>
<path d="M99.744 16.4333C100.911 16.4333 101.945 16.6744 102.847 17.1566C103.75 17.6389 104.45 18.3311 104.947 19.2333C105.461 20.1355 105.717 21.2244 105.717 22.5C105.717 23.7755 105.461 24.8644 104.947 25.7666C104.45 26.6689 103.75 27.3611 102.847 27.8433C101.945 28.3255 100.911 28.5666 99.744 28.5666C98.5617 28.5666 97.5195 28.3255 96.6173 27.8433C95.7306 27.3611 95.0306 26.6689 94.5173 25.7666C94.0195 24.8644 93.7706 23.7755 93.7706 22.5C93.7706 21.2244 94.0195 20.1355 94.5173 19.2333C95.0306 18.3311 95.7306 17.6389 96.6173 17.1566C97.5195 16.6744 98.5617 16.4333 99.744 16.4333ZM99.744 18.8133C98.8728 18.8133 98.1884 19.1244 97.6906 19.7466C97.2084 20.3533 96.9673 21.2711 96.9673 22.5C96.9673 23.7289 97.2084 24.6544 97.6906 25.2766C98.1884 25.8833 98.8728 26.1866 99.744 26.1866C100.6 26.1866 101.268 25.8833 101.751 25.2766C102.248 24.6544 102.497 23.7289 102.497 22.5C102.497 21.2711 102.248 20.3533 101.751 19.7466C101.268 19.1244 100.6 18.8133 99.744 18.8133Z" fill="#475467"/>
<path d="M113.712 16.4333C114.879 16.4333 115.913 16.6744 116.815 17.1566C117.718 17.6389 118.418 18.3311 118.915 19.2333C119.429 20.1355 119.685 21.2244 119.685 22.5C119.685 23.7755 119.429 24.8644 118.915 25.7666C118.418 26.6689 117.718 27.3611 116.815 27.8433C115.913 28.3255 114.879 28.5666 113.712 28.5666C112.53 28.5666 111.488 28.3255 110.585 27.8433C109.699 27.3611 108.999 26.6689 108.485 25.7666C107.988 24.8644 107.739 23.7755 107.739 22.5C107.739 21.2244 107.988 20.1355 108.485 19.2333C108.999 18.3311 109.699 17.6389 110.585 17.1566C111.488 16.6744 112.53 16.4333 113.712 16.4333ZM113.712 18.8133C112.841 18.8133 112.156 19.1244 111.659 19.7466C111.176 20.3533 110.935 21.2711 110.935 22.5C110.935 23.7289 111.176 24.6544 111.659 25.2766C112.156 25.8833 112.841 26.1866 113.712 26.1866C114.568 26.1866 115.236 25.8833 115.719 25.2766C116.216 24.6544 116.465 23.7289 116.465 22.5C116.465 21.2711 116.216 20.3533 115.719 19.7466C115.236 19.1244 114.568 18.8133 113.712 18.8133Z" fill="#475467"/>
<path d="M125.51 11.5566V24.74C125.51 25.2844 125.603 25.6655 125.79 25.8833C125.977 26.1011 126.288 26.21 126.723 26.21C126.988 26.21 127.206 26.1944 127.377 26.1633C127.548 26.1322 127.766 26.07 128.03 25.9766L127.75 28.0766C127.486 28.2322 127.151 28.3489 126.747 28.4266C126.358 28.52 125.969 28.5666 125.58 28.5666C124.445 28.5666 123.612 28.2944 123.083 27.75C122.57 27.19 122.313 26.3033 122.313 25.09V11.5566H125.51Z" fill="#475467"/>
<path d="M135.225 28.5666C133.389 28.5666 131.919 28.0378 130.815 26.98C129.71 25.9066 129.158 24.4133 129.158 22.5C129.158 21.2244 129.407 20.1355 129.905 19.2333C130.402 18.3311 131.095 17.6389 131.981 17.1566C132.884 16.6744 133.91 16.4333 135.061 16.4333C136.244 16.4333 137.247 16.6744 138.071 17.1566C138.896 17.6233 139.526 18.2689 139.961 19.0933C140.397 19.9022 140.615 20.8278 140.615 21.87C140.615 22.1811 140.607 22.4766 140.591 22.7566C140.576 23.0366 140.552 23.2855 140.521 23.5033H132.285C132.409 24.4055 132.72 25.0822 133.218 25.5333C133.731 25.9689 134.392 26.1866 135.201 26.1866C135.886 26.1866 136.438 26.0544 136.858 25.79C137.278 25.5255 137.605 25.16 137.838 24.6933L140.381 25.6733C140.008 26.5911 139.355 27.3066 138.421 27.82C137.488 28.3178 136.422 28.5666 135.225 28.5666ZM135.038 18.79C133.529 18.79 132.619 19.6222 132.308 21.2866H137.558C137.465 20.4778 137.2 19.8633 136.765 19.4433C136.345 19.0078 135.769 18.79 135.038 18.79Z" fill="#475467"/>
<path d="M147.99 28.5666C146.808 28.5666 145.727 28.3566 144.747 27.9366C143.783 27.5166 142.997 26.9255 142.39 26.1633L144.234 24.2966C144.607 24.8566 145.105 25.3155 145.727 25.6733C146.349 26.0311 147.088 26.21 147.944 26.21C148.55 26.21 149.033 26.1244 149.39 25.9533C149.764 25.7666 149.95 25.4789 149.95 25.09C149.95 24.8411 149.865 24.6311 149.694 24.46C149.523 24.2733 149.18 24.1255 148.667 24.0166L146.614 23.5966C145.26 23.3166 144.296 22.8966 143.72 22.3366C143.16 21.7611 142.88 21.0222 142.88 20.12C142.88 19.4822 143.067 18.8833 143.44 18.3233C143.829 17.7633 144.405 17.3122 145.167 16.97C145.929 16.6122 146.878 16.4333 148.014 16.4333C150.378 16.4333 152.074 17.1566 153.1 18.6033L151.187 20.47C150.845 19.9255 150.394 19.5133 149.834 19.2333C149.289 18.9378 148.714 18.79 148.107 18.79C146.738 18.79 146.054 19.1711 146.054 19.9333C146.054 20.1822 146.163 20.4 146.38 20.5866C146.598 20.7578 146.995 20.9055 147.57 21.03L149.95 21.52C151.101 21.7533 151.926 22.15 152.424 22.71C152.921 23.2544 153.17 23.9155 153.17 24.6933C153.17 25.8133 152.719 26.7389 151.817 27.47C150.93 28.2011 149.655 28.5666 147.99 28.5666Z" fill="#475467"/>
</svg>
