<svg width="154" height="40" viewBox="0 0 154 40" fill="none" xmlns="http://www.w3.org/2000/svg">
<path d="M14.0395 27.8571C21.2718 27.8571 27.1347 21.9942 27.1347 14.7619C27.1347 13.9422 27.0594 13.1401 26.9153 12.3622C26.1374 12.2181 25.3353 12.1428 24.5156 12.1428C17.2833 12.1428 11.4204 18.0058 11.4204 25.2381C11.4204 26.0577 11.4957 26.8598 11.6398 27.6377C12.4177 27.7818 13.2198 27.8571 14.0395 27.8571Z" fill="#667085"/>
<path fill-rule="evenodd" clip-rule="evenodd" d="M11.6399 27.6377C5.55365 26.5106 0.944336 21.1745 0.944336 14.7619C0.944336 7.52956 6.80727 1.66663 14.0396 1.66663C20.4522 1.66663 25.7883 6.27594 26.9154 12.3622C26.1375 12.2181 25.3354 12.1428 24.5158 12.1428C17.2835 12.1428 11.4205 18.0058 11.4205 25.2381C11.4205 26.0577 11.4958 26.8598 11.6399 27.6377Z" fill="#667085"/>
<path fill-rule="evenodd" clip-rule="evenodd" d="M14.0396 27.8571C21.2719 27.8571 27.1348 21.9942 27.1348 14.7619C27.1348 13.9422 27.0595 13.1401 26.9154 12.3622C33.0017 13.4893 37.611 18.8254 37.611 25.238C37.611 32.4703 31.7481 38.3333 24.5158 38.3333C18.1031 38.3333 12.767 33.724 11.6399 27.6377C12.4178 27.7818 13.2199 27.8571 14.0396 27.8571Z" fill="#98A2B3"/>
<path d="M62.801 24.0866C62.3343 25.5955 61.5177 26.7233 60.351 27.47C59.1843 28.2011 57.8232 28.5666 56.2677 28.5666C54.7432 28.5666 53.421 28.2478 52.301 27.61C51.1965 26.9722 50.341 26.0622 49.7343 24.88C49.1432 23.6978 48.8477 22.2822 48.8477 20.6333C48.8477 18.9844 49.151 17.5689 49.7577 16.3866C50.3643 15.2044 51.2199 14.2944 52.3243 13.6566C53.4288 13.0189 54.7277 12.7 56.221 12.7C57.7921 12.7 59.1377 13.0344 60.2577 13.7033C61.3932 14.3566 62.171 15.3522 62.591 16.69L59.6743 17.9266C59.4099 16.9933 59.0054 16.3322 58.461 15.9433C57.9165 15.5389 57.2165 15.3366 56.361 15.3366C55.0854 15.3366 54.0665 15.7955 53.3043 16.7133C52.5577 17.6155 52.1843 18.9222 52.1843 20.6333C52.1843 22.3289 52.5421 23.6355 53.2577 24.5533C53.9732 25.4711 55.0077 25.93 56.361 25.93C57.201 25.93 57.9243 25.7044 58.531 25.2533C59.1532 24.8022 59.5888 24.1178 59.8377 23.2L62.801 24.0866Z" fill="#475467"/>
<path d="M66.8287 14.9866C65.5065 14.9866 64.8454 14.4189 64.8454 13.2833C64.8454 12.1322 65.5065 11.5566 66.8287 11.5566C68.1509 11.5566 68.8121 12.1322 68.8121 13.2833C68.8121 14.4189 68.1509 14.9866 66.8287 14.9866ZM68.4154 16.6666V28.3333H65.2187V16.6666H68.4154Z" fill="#475467"/>
<path d="M71.804 28.3333V16.6666H74.5807L74.7907 18.9533C75.0862 18.16 75.5296 17.5455 76.1207 17.11C76.7273 16.6589 77.4896 16.4333 78.4073 16.4333C78.9518 16.4333 79.3718 16.5189 79.6673 16.69L79.294 19.3733C79.1384 19.3266 78.944 19.2878 78.7107 19.2566C78.4929 19.21 78.2051 19.1866 77.8473 19.1866C77.3651 19.1866 76.9062 19.3033 76.4707 19.5366C76.0507 19.7544 75.7007 20.0966 75.4207 20.5633C75.1407 21.0144 75.0007 21.59 75.0007 22.29V28.3333H71.804Z" fill="#475467"/>
<path d="M86.7166 16.4333C88.2721 16.4333 89.4777 16.7678 90.3332 17.4366C91.2043 18.1055 91.7799 18.9144 92.0599 19.8633L89.0732 20.9366C88.7621 19.5211 87.9921 18.8133 86.7632 18.8133C85.8766 18.8133 85.1843 19.1244 84.6866 19.7466C84.2043 20.3689 83.9632 21.2944 83.9632 22.5233C83.9632 23.7678 84.2121 24.6933 84.7099 25.3C85.2232 25.8911 85.9154 26.1866 86.7866 26.1866C88.1399 26.1866 88.9488 25.4944 89.2132 24.11L92.1066 25.0433C91.8421 26.0855 91.251 26.9333 90.3332 27.5866C89.431 28.24 88.2566 28.5666 86.8099 28.5666C85.5966 28.5666 84.531 28.3255 83.6132 27.8433C82.711 27.3611 82.011 26.6689 81.5132 25.7666C81.0154 24.8644 80.7666 23.7755 80.7666 22.5C80.7666 21.2244 81.0154 20.1355 81.5132 19.2333C82.0266 18.3311 82.7266 17.6389 83.6132 17.1566C84.5154 16.6744 85.5499 16.4333 86.7166 16.4333Z" fill="#475467"/>
<path d="M99.9105 16.4333C101.077 16.4333 102.112 16.6744 103.014 17.1566C103.916 17.6389 104.616 18.3311 105.114 19.2333C105.627 20.1355 105.884 21.2244 105.884 22.5C105.884 23.7755 105.627 24.8644 105.114 25.7666C104.616 26.6689 103.916 27.3611 103.014 27.8433C102.112 28.3255 101.077 28.5666 99.9105 28.5666C98.7282 28.5666 97.686 28.3255 96.7838 27.8433C95.8971 27.3611 95.1971 26.6689 94.6838 25.7666C94.186 24.8644 93.9371 23.7755 93.9371 22.5C93.9371 21.2244 94.186 20.1355 94.6838 19.2333C95.1971 18.3311 95.8971 17.6389 96.7838 17.1566C97.686 16.6744 98.7282 16.4333 99.9105 16.4333ZM99.9105 18.8133C99.0393 18.8133 98.3549 19.1244 97.8571 19.7466C97.3749 20.3533 97.1338 21.2711 97.1338 22.5C97.1338 23.7289 97.3749 24.6544 97.8571 25.2766C98.3549 25.8833 99.0393 26.1866 99.9105 26.1866C100.766 26.1866 101.435 25.8833 101.917 25.2766C102.415 24.6544 102.664 23.7289 102.664 22.5C102.664 21.2711 102.415 20.3533 101.917 19.7466C101.435 19.1244 100.766 18.8133 99.9105 18.8133Z" fill="#475467"/>
<path d="M113.879 16.4333C115.045 16.4333 116.08 16.6744 116.982 17.1566C117.884 17.6389 118.584 18.3311 119.082 19.2333C119.595 20.1355 119.852 21.2244 119.852 22.5C119.852 23.7755 119.595 24.8644 119.082 25.7666C118.584 26.6689 117.884 27.3611 116.982 27.8433C116.08 28.3255 115.045 28.5666 113.879 28.5666C112.696 28.5666 111.654 28.3255 110.752 27.8433C109.865 27.3611 109.165 26.6689 108.652 25.7666C108.154 24.8644 107.905 23.7755 107.905 22.5C107.905 21.2244 108.154 20.1355 108.652 19.2333C109.165 18.3311 109.865 17.6389 110.752 17.1566C111.654 16.6744 112.696 16.4333 113.879 16.4333ZM113.879 18.8133C113.007 18.8133 112.323 19.1244 111.825 19.7466C111.343 20.3533 111.102 21.2711 111.102 22.5C111.102 23.7289 111.343 24.6544 111.825 25.2766C112.323 25.8833 113.007 26.1866 113.879 26.1866C114.734 26.1866 115.403 25.8833 115.885 25.2766C116.383 24.6544 116.632 23.7289 116.632 22.5C116.632 21.2711 116.383 20.3533 115.885 19.7466C115.403 19.1244 114.734 18.8133 113.879 18.8133Z" fill="#475467"/>
<path d="M125.677 11.5566V24.74C125.677 25.2844 125.77 25.6655 125.957 25.8833C126.143 26.1011 126.454 26.21 126.89 26.21C127.154 26.21 127.372 26.1944 127.543 26.1633C127.714 26.1322 127.932 26.07 128.197 25.9766L127.917 28.0766C127.652 28.2322 127.318 28.3489 126.913 28.4266C126.524 28.52 126.136 28.5666 125.747 28.5666C124.611 28.5666 123.779 28.2944 123.25 27.75C122.737 27.19 122.48 26.3033 122.48 25.09V11.5566H125.677Z" fill="#475467"/>
<path d="M135.391 28.5666C133.556 28.5666 132.086 28.0378 130.981 26.98C129.877 25.9066 129.324 24.4133 129.324 22.5C129.324 21.2244 129.573 20.1355 130.071 19.2333C130.569 18.3311 131.261 17.6389 132.148 17.1566C133.05 16.6744 134.077 16.4333 135.228 16.4333C136.41 16.4333 137.413 16.6744 138.238 17.1566C139.062 17.6233 139.692 18.2689 140.128 19.0933C140.563 19.9022 140.781 20.8278 140.781 21.87C140.781 22.1811 140.773 22.4766 140.758 22.7566C140.742 23.0366 140.719 23.2855 140.688 23.5033H132.451C132.576 24.4055 132.887 25.0822 133.384 25.5333C133.898 25.9689 134.559 26.1866 135.368 26.1866C136.052 26.1866 136.604 26.0544 137.024 25.79C137.444 25.5255 137.771 25.16 138.004 24.6933L140.548 25.6733C140.174 26.5911 139.521 27.3066 138.588 27.82C137.654 28.3178 136.589 28.5666 135.391 28.5666ZM135.204 18.79C133.696 18.79 132.786 19.6222 132.474 21.2866H137.724C137.631 20.4778 137.367 19.8633 136.931 19.4433C136.511 19.0078 135.936 18.79 135.204 18.79Z" fill="#475467"/>
<path d="M148.157 28.5666C146.975 28.5666 145.894 28.3566 144.914 27.9366C143.949 27.5166 143.164 26.9255 142.557 26.1633L144.4 24.2966C144.774 24.8566 145.271 25.3155 145.894 25.6733C146.516 26.0311 147.255 26.21 148.11 26.21C148.717 26.21 149.199 26.1244 149.557 25.9533C149.93 25.7666 150.117 25.4789 150.117 25.09C150.117 24.8411 150.031 24.6311 149.86 24.46C149.689 24.2733 149.347 24.1255 148.834 24.0166L146.78 23.5966C145.427 23.3166 144.462 22.8966 143.887 22.3366C143.327 21.7611 143.047 21.0222 143.047 20.12C143.047 19.4822 143.234 18.8833 143.607 18.3233C143.996 17.7633 144.571 17.3122 145.334 16.97C146.096 16.6122 147.045 16.4333 148.18 16.4333C150.545 16.4333 152.24 17.1566 153.267 18.6033L151.354 20.47C151.011 19.9255 150.56 19.5133 150 19.2333C149.456 18.9378 148.88 18.79 148.274 18.79C146.905 18.79 146.22 19.1711 146.22 19.9333C146.22 20.1822 146.329 20.4 146.547 20.5866C146.765 20.7578 147.161 20.9055 147.737 21.03L150.117 21.52C151.268 21.7533 152.092 22.15 152.59 22.71C153.088 23.2544 153.337 23.9155 153.337 24.6933C153.337 25.8133 152.886 26.7389 151.984 27.47C151.097 28.2011 149.821 28.5666 148.157 28.5666Z" fill="#475467"/>
</svg>
