<svg width="663" height="79" viewBox="0 0 663 79" fill="none" xmlns="http://www.w3.org/2000/svg">
<path opacity="0.5" d="M41.7192 34.2505L14.0887 6.61998C8.90211 1.43337 0 5.11115 0 12.4667V67.7088C0 75.0644 8.90211 78.7421 14.0887 73.5555L41.7192 45.925C44.9443 42.6999 44.9443 37.4756 41.7192 34.2505Z" fill="#2E90FA"/>
<path d="M60.0136 34.2505L32.3831 6.62C27.1777 1.41453 18.2944 5.11117 18.2944 12.4667V67.7088C18.2944 75.0644 27.1965 78.7421 32.3831 73.5555L60.0136 45.9251C63.2387 42.6999 63.2387 37.4756 60.0136 34.2505Z" fill="#2E90FA"/>
<path d="M90.08 51.84V40.77H102.86C105.44 40.77 107.6 40.26 109.34 39.24C111.14 38.22 112.49 36.81 113.39 35.01C114.35 33.21 114.83 31.14 114.83 28.8C114.83 26.46 114.35 24.39 113.39 22.59C112.49 20.79 111.14 19.41 109.34 18.45C107.6 17.43 105.44 16.92 102.86 16.92H90.08V5.85H101.78C107.3 5.85 111.98 6.75 115.82 8.55C119.72 10.35 122.69 12.93 124.73 16.29C126.77 19.59 127.79 23.52 127.79 28.08V29.52C127.79 34.08 126.77 38.04 124.73 41.4C122.69 44.7 119.72 47.28 115.82 49.14C111.98 50.94 107.3 51.84 101.78 51.84H90.08ZM79.1 72V5.85H91.88V72H79.1ZM162.843 72V57.51H160.773V41.4C160.773 38.58 160.083 36.48 158.703 35.1C157.323 33.72 155.193 33.03 152.313 33.03C150.813 33.03 149.013 33.06 146.913 33.12C144.813 33.18 142.683 33.27 140.523 33.39C138.423 33.45 136.533 33.54 134.853 33.66V23.04C136.233 22.92 137.793 22.8 139.533 22.68C141.273 22.56 143.043 22.5 144.843 22.5C146.703 22.44 148.443 22.41 150.063 22.41C155.103 22.41 159.273 23.07 162.573 24.39C165.933 25.71 168.453 27.78 170.133 30.6C171.873 33.42 172.743 37.11 172.743 41.67V72H162.843ZM147.093 73.26C143.553 73.26 140.433 72.63 137.733 71.37C135.093 70.11 133.023 68.31 131.523 65.97C130.083 63.63 129.363 60.81 129.363 57.51C129.363 53.91 130.233 50.97 131.973 48.69C133.773 46.41 136.263 44.7 139.443 43.56C142.683 42.42 146.463 41.85 150.783 41.85H162.123V49.32H150.603C147.723 49.32 145.503 50.04 143.943 51.48C142.443 52.86 141.693 54.66 141.693 56.88C141.693 59.1 142.443 60.9 143.943 62.28C145.503 63.66 147.723 64.35 150.603 64.35C152.343 64.35 153.933 64.05 155.373 63.45C156.873 62.79 158.103 61.71 159.063 60.21C160.083 58.65 160.653 56.55 160.773 53.91L163.833 57.42C163.533 60.84 162.693 63.72 161.313 66.06C159.993 68.4 158.133 70.2 155.733 71.46C153.393 72.66 150.513 73.26 147.093 73.26ZM200.373 73.53C193.653 73.53 188.373 72.12 184.533 69.3C180.753 66.42 178.773 62.46 178.593 57.42H189.843C190.023 59.1 190.953 60.63 192.633 62.01C194.313 63.39 196.953 64.08 200.553 64.08C203.553 64.08 205.923 63.54 207.663 62.46C209.463 61.38 210.363 59.91 210.363 58.05C210.363 56.43 209.673 55.14 208.293 54.18C206.973 53.22 204.693 52.59 201.453 52.29L197.133 51.84C191.673 51.24 187.473 49.68 184.533 47.16C181.593 44.64 180.123 41.28 180.123 37.08C180.123 33.72 180.963 30.9 182.643 28.62C184.323 26.34 186.633 24.63 189.573 23.49C192.573 22.29 195.993 21.69 199.833 21.69C205.833 21.69 210.693 23.01 214.413 25.65C218.133 28.29 220.083 32.16 220.263 37.26H209.013C208.893 35.58 208.053 34.14 206.493 32.94C204.933 31.74 202.683 31.14 199.743 31.14C197.103 31.14 195.063 31.65 193.623 32.67C192.183 33.69 191.463 35.01 191.463 36.63C191.463 38.19 192.033 39.39 193.173 40.23C194.373 41.07 196.293 41.64 198.933 41.94L203.253 42.39C209.013 42.99 213.513 44.58 216.753 47.16C220.053 49.74 221.703 53.22 221.703 57.6C221.703 60.84 220.803 63.66 219.003 66.06C217.263 68.4 214.803 70.23 211.623 71.55C208.443 72.87 204.693 73.53 200.373 73.53ZM246.268 73.53C239.548 73.53 234.268 72.12 230.428 69.3C226.648 66.42 224.668 62.46 224.488 57.42H235.738C235.918 59.1 236.848 60.63 238.528 62.01C240.208 63.39 242.848 64.08 246.448 64.08C249.448 64.08 251.818 63.54 253.558 62.46C255.358 61.38 256.258 59.91 256.258 58.05C256.258 56.43 255.568 55.14 254.188 54.18C252.868 53.22 250.588 52.59 247.348 52.29L243.028 51.84C237.568 51.24 233.368 49.68 230.428 47.16C227.488 44.64 226.018 41.28 226.018 37.08C226.018 33.72 226.858 30.9 228.538 28.62C230.218 26.34 232.528 24.63 235.468 23.49C238.468 22.29 241.888 21.69 245.728 21.69C251.728 21.69 256.588 23.01 260.308 25.65C264.028 28.29 265.978 32.16 266.158 37.26H254.908C254.788 35.58 253.948 34.14 252.388 32.94C250.828 31.74 248.578 31.14 245.638 31.14C242.998 31.14 240.958 31.65 239.518 32.67C238.078 33.69 237.358 35.01 237.358 36.63C237.358 38.19 237.928 39.39 239.068 40.23C240.268 41.07 242.188 41.64 244.828 41.94L249.148 42.39C254.908 42.99 259.408 44.58 262.648 47.16C265.948 49.74 267.598 53.22 267.598 57.6C267.598 60.84 266.698 63.66 264.898 66.06C263.158 68.4 260.698 70.23 257.518 71.55C254.338 72.87 250.588 73.53 246.268 73.53ZM290.733 72L300.003 24.75H314.403L325.113 72H315.213L304.323 25.02H309.543L299.913 72H290.733ZM287.043 72L286.953 61.74H296.943V72H287.043ZM282.003 72L268.683 23.13H280.833L293.523 72H282.003ZM318.363 72V61.74H328.353L328.263 72H318.363ZM322.323 72L333.573 23.13H344.913L333.123 72H322.323ZM373.7 73.71C369.38 73.71 365.57 73.02 362.27 71.64C358.97 70.26 356.18 68.4 353.9 66.06C351.62 63.66 349.88 60.96 348.68 57.96C347.54 54.96 346.97 51.84 346.97 48.6V46.71C346.97 43.35 347.57 40.17 348.77 37.17C350.03 34.11 351.8 31.41 354.08 29.07C356.42 26.67 359.24 24.81 362.54 23.49C365.84 22.11 369.56 21.42 373.7 21.42C377.84 21.42 381.56 22.11 384.86 23.49C388.16 24.81 390.95 26.67 393.23 29.07C395.57 31.41 397.34 34.11 398.54 37.17C399.74 40.17 400.34 43.35 400.34 46.71V48.6C400.34 51.84 399.74 54.96 398.54 57.96C397.4 60.96 395.69 63.66 393.41 66.06C391.13 68.4 388.34 70.26 385.04 71.64C381.74 73.02 377.96 73.71 373.7 73.71ZM373.7 63C376.76 63 379.34 62.34 381.44 61.02C383.54 59.64 385.13 57.81 386.21 55.53C387.29 53.19 387.83 50.55 387.83 47.61C387.83 44.61 387.26 41.97 386.12 39.69C385.04 37.35 383.42 35.52 381.26 34.2C379.16 32.82 376.64 32.13 373.7 32.13C370.76 32.13 368.21 32.82 366.05 34.2C363.95 35.52 362.33 37.35 361.19 39.69C360.05 41.97 359.48 44.61 359.48 47.61C359.48 50.55 360.02 53.19 361.1 55.53C362.24 57.81 363.86 59.64 365.96 61.02C368.06 62.34 370.64 63 373.7 63ZM407.794 72V23.13H417.694V43.83H417.424C417.424 36.81 418.924 31.5 421.924 27.9C424.924 24.3 429.334 22.5 435.154 22.5H436.954V33.39H433.534C429.334 33.39 426.064 34.53 423.724 36.81C421.444 39.03 420.304 42.27 420.304 46.53V72H407.794ZM461.721 73.62C458.301 73.62 455.151 72.99 452.271 71.73C449.391 70.47 446.901 68.7 444.801 66.42C442.701 64.14 441.081 61.5 439.941 58.5C438.801 55.44 438.231 52.14 438.231 48.6V46.71C438.231 43.23 438.771 39.96 439.851 36.9C440.991 33.84 442.551 31.17 444.531 28.89C446.571 26.61 449.001 24.84 451.821 23.58C454.701 22.26 457.881 21.6 461.361 21.6C465.201 21.6 468.561 22.44 471.441 24.12C474.381 25.74 476.721 28.2 478.461 31.5C480.201 34.8 481.161 38.94 481.341 43.92L477.651 39.6V6.3H490.161V72H480.261V51.21H482.421C482.241 56.19 481.221 60.36 479.361 63.72C477.501 67.02 475.041 69.51 471.981 71.19C468.981 72.81 465.561 73.62 461.721 73.62ZM464.511 63.09C466.971 63.09 469.221 62.55 471.261 61.47C473.301 60.33 474.921 58.71 476.121 56.61C477.381 54.45 478.011 51.93 478.011 49.05V45.45C478.011 42.57 477.381 40.17 476.121 38.25C474.861 36.27 473.211 34.77 471.171 33.75C469.131 32.67 466.911 32.13 464.511 32.13C461.811 32.13 459.411 32.79 457.311 34.11C455.271 35.37 453.651 37.17 452.451 39.51C451.311 41.85 450.741 44.58 450.741 47.7C450.741 50.82 451.341 53.55 452.541 55.89C453.741 58.17 455.361 59.94 457.401 61.2C459.501 62.46 461.871 63.09 464.511 63.09ZM501.531 72V6.3H514.041V72H501.531ZM495.411 15.66V6.3H514.041V15.66H495.411ZM546.693 73.71C542.493 73.71 538.803 72.99 535.623 71.55C532.503 70.11 529.893 68.19 527.793 65.79C525.753 63.33 524.193 60.6 523.113 57.6C522.093 54.6 521.583 51.54 521.583 48.42V46.71C521.583 43.47 522.093 40.35 523.113 37.35C524.193 34.29 525.753 31.59 527.793 29.25C529.893 26.85 532.473 24.96 535.533 23.58C538.593 22.14 542.133 21.42 546.153 21.42C551.433 21.42 555.843 22.59 559.383 24.93C562.983 27.21 565.683 30.24 567.483 34.02C569.283 37.74 570.183 41.76 570.183 46.08V50.58H526.893V42.93H562.353L558.483 46.71C558.483 43.59 558.033 40.92 557.133 38.7C556.233 36.48 554.853 34.77 552.993 33.57C551.193 32.37 548.913 31.77 546.153 31.77C543.393 31.77 541.053 32.4 539.133 33.66C537.213 34.92 535.743 36.75 534.723 39.15C533.763 41.49 533.283 44.31 533.283 47.61C533.283 50.67 533.763 53.4 534.723 55.8C535.683 58.14 537.153 60 539.133 61.38C541.113 62.7 543.633 63.36 546.693 63.36C549.753 63.36 552.243 62.76 554.163 61.56C556.083 60.3 557.313 58.77 557.853 56.97H569.373C568.653 60.33 567.273 63.27 565.233 65.79C563.193 68.31 560.583 70.26 557.403 71.64C554.283 73.02 550.713 73.71 546.693 73.71ZM594.863 73.53C588.143 73.53 582.863 72.12 579.023 69.3C575.243 66.42 573.263 62.46 573.083 57.42H584.333C584.513 59.1 585.443 60.63 587.123 62.01C588.803 63.39 591.443 64.08 595.043 64.08C598.043 64.08 600.413 63.54 602.153 62.46C603.953 61.38 604.853 59.91 604.853 58.05C604.853 56.43 604.163 55.14 602.783 54.18C601.463 53.22 599.183 52.59 595.943 52.29L591.623 51.84C586.163 51.24 581.963 49.68 579.023 47.16C576.083 44.64 574.613 41.28 574.613 37.08C574.613 33.72 575.453 30.9 577.133 28.62C578.813 26.34 581.123 24.63 584.063 23.49C587.063 22.29 590.483 21.69 594.323 21.69C600.323 21.69 605.183 23.01 608.903 25.65C612.623 28.29 614.573 32.16 614.753 37.26H603.503C603.383 35.58 602.543 34.14 600.983 32.94C599.423 31.74 597.173 31.14 594.233 31.14C591.593 31.14 589.553 31.65 588.113 32.67C586.673 33.69 585.953 35.01 585.953 36.63C585.953 38.19 586.523 39.39 587.663 40.23C588.863 41.07 590.783 41.64 593.423 41.94L597.743 42.39C603.503 42.99 608.003 44.58 611.243 47.16C614.543 49.74 616.193 53.22 616.193 57.6C616.193 60.84 615.293 63.66 613.493 66.06C611.753 68.4 609.293 70.23 606.113 71.55C602.933 72.87 599.183 73.53 594.863 73.53ZM640.758 73.53C634.038 73.53 628.758 72.12 624.918 69.3C621.138 66.42 619.158 62.46 618.978 57.42H630.228C630.408 59.1 631.338 60.63 633.018 62.01C634.698 63.39 637.338 64.08 640.938 64.08C643.938 64.08 646.308 63.54 648.048 62.46C649.848 61.38 650.748 59.91 650.748 58.05C650.748 56.43 650.058 55.14 648.678 54.18C647.358 53.22 645.078 52.59 641.838 52.29L637.518 51.84C632.058 51.24 627.858 49.68 624.918 47.16C621.978 44.64 620.508 41.28 620.508 37.08C620.508 33.72 621.348 30.9 623.028 28.62C624.708 26.34 627.018 24.63 629.958 23.49C632.958 22.29 636.378 21.69 640.218 21.69C646.218 21.69 651.078 23.01 654.798 25.65C658.518 28.29 660.468 32.16 660.648 37.26H649.398C649.278 35.58 648.438 34.14 646.878 32.94C645.318 31.74 643.068 31.14 640.128 31.14C637.488 31.14 635.448 31.65 634.008 32.67C632.568 33.69 631.848 35.01 631.848 36.63C631.848 38.19 632.418 39.39 633.558 40.23C634.758 41.07 636.678 41.64 639.318 41.94L643.638 42.39C649.398 42.99 653.898 44.58 657.138 47.16C660.438 49.74 662.088 53.22 662.088 57.6C662.088 60.84 661.188 63.66 659.388 66.06C657.648 68.4 655.188 70.23 652.008 71.55C648.828 72.87 645.078 73.53 640.758 73.53Z" fill="black"/>
</svg>
