<svg width="663" height="79" viewBox="0 0 663 79" fill="none" xmlns="http://www.w3.org/2000/svg">
<path opacity="0.5" d="M41.7192 34.2505L14.0887 6.61998C8.90211 1.43337 0 5.11115 0 12.4667V67.7088C0 75.0644 8.90211 78.7421 14.0887 73.5555L41.7192 45.925C44.9443 42.6999 44.9443 37.4756 41.7192 34.2505Z" fill="#2E90FA"/>
<path d="M60.0141 34.2505L32.3836 6.62C27.1782 1.41453 18.2949 5.11117 18.2949 12.4667V67.7088C18.2949 75.0644 27.197 78.7421 32.3836 73.5555L60.0141 45.9251C63.2392 42.6999 63.2392 37.4756 60.0141 34.2505Z" fill="#2E90FA"/>
<path d="M90.08 50.84V39.77H102.86C105.44 39.77 107.6 39.26 109.34 38.24C111.14 37.22 112.49 35.81 113.39 34.01C114.35 32.21 114.83 30.14 114.83 27.8C114.83 25.46 114.35 23.39 113.39 21.59C112.49 19.79 111.14 18.41 109.34 17.45C107.6 16.43 105.44 15.92 102.86 15.92H90.08V4.85H101.78C107.3 4.85 111.98 5.75 115.82 7.55C119.72 9.35 122.69 11.93 124.73 15.29C126.77 18.59 127.79 22.52 127.79 27.08V28.52C127.79 33.08 126.77 37.04 124.73 40.4C122.69 43.7 119.72 46.28 115.82 48.14C111.98 49.94 107.3 50.84 101.78 50.84H90.08ZM79.1 71V4.85H91.88V71H79.1ZM162.843 71V56.51H160.773V40.4C160.773 37.58 160.083 35.48 158.703 34.1C157.323 32.72 155.193 32.03 152.313 32.03C150.813 32.03 149.013 32.06 146.913 32.12C144.813 32.18 142.683 32.27 140.523 32.39C138.423 32.45 136.533 32.54 134.853 32.66V22.04C136.233 21.92 137.793 21.8 139.533 21.68C141.273 21.56 143.043 21.5 144.843 21.5C146.703 21.44 148.443 21.41 150.063 21.41C155.103 21.41 159.273 22.07 162.573 23.39C165.933 24.71 168.453 26.78 170.133 29.6C171.873 32.42 172.743 36.11 172.743 40.67V71H162.843ZM147.093 72.26C143.553 72.26 140.433 71.63 137.733 70.37C135.093 69.11 133.023 67.31 131.523 64.97C130.083 62.63 129.363 59.81 129.363 56.51C129.363 52.91 130.233 49.97 131.973 47.69C133.773 45.41 136.263 43.7 139.443 42.56C142.683 41.42 146.463 40.85 150.783 40.85H162.123V48.32H150.603C147.723 48.32 145.503 49.04 143.943 50.48C142.443 51.86 141.693 53.66 141.693 55.88C141.693 58.1 142.443 59.9 143.943 61.28C145.503 62.66 147.723 63.35 150.603 63.35C152.343 63.35 153.933 63.05 155.373 62.45C156.873 61.79 158.103 60.71 159.063 59.21C160.083 57.65 160.653 55.55 160.773 52.91L163.833 56.42C163.533 59.84 162.693 62.72 161.313 65.06C159.993 67.4 158.133 69.2 155.733 70.46C153.393 71.66 150.513 72.26 147.093 72.26ZM200.373 72.53C193.653 72.53 188.373 71.12 184.533 68.3C180.753 65.42 178.773 61.46 178.593 56.42H189.843C190.023 58.1 190.953 59.63 192.633 61.01C194.313 62.39 196.953 63.08 200.553 63.08C203.553 63.08 205.923 62.54 207.663 61.46C209.463 60.38 210.363 58.91 210.363 57.05C210.363 55.43 209.673 54.14 208.293 53.18C206.973 52.22 204.693 51.59 201.453 51.29L197.133 50.84C191.673 50.24 187.473 48.68 184.533 46.16C181.593 43.64 180.123 40.28 180.123 36.08C180.123 32.72 180.963 29.9 182.643 27.62C184.323 25.34 186.633 23.63 189.573 22.49C192.573 21.29 195.993 20.69 199.833 20.69C205.833 20.69 210.693 22.01 214.413 24.65C218.133 27.29 220.083 31.16 220.263 36.26H209.013C208.893 34.58 208.053 33.14 206.493 31.94C204.933 30.74 202.683 30.14 199.743 30.14C197.103 30.14 195.063 30.65 193.623 31.67C192.183 32.69 191.463 34.01 191.463 35.63C191.463 37.19 192.033 38.39 193.173 39.23C194.373 40.07 196.293 40.64 198.933 40.94L203.253 41.39C209.013 41.99 213.513 43.58 216.753 46.16C220.053 48.74 221.703 52.22 221.703 56.6C221.703 59.84 220.803 62.66 219.003 65.06C217.263 67.4 214.803 69.23 211.623 70.55C208.443 71.87 204.693 72.53 200.373 72.53ZM246.268 72.53C239.548 72.53 234.268 71.12 230.428 68.3C226.648 65.42 224.668 61.46 224.488 56.42H235.738C235.918 58.1 236.848 59.63 238.528 61.01C240.208 62.39 242.848 63.08 246.448 63.08C249.448 63.08 251.818 62.54 253.558 61.46C255.358 60.38 256.258 58.91 256.258 57.05C256.258 55.43 255.568 54.14 254.188 53.18C252.868 52.22 250.588 51.59 247.348 51.29L243.028 50.84C237.568 50.24 233.368 48.68 230.428 46.16C227.488 43.64 226.018 40.28 226.018 36.08C226.018 32.72 226.858 29.9 228.538 27.62C230.218 25.34 232.528 23.63 235.468 22.49C238.468 21.29 241.888 20.69 245.728 20.69C251.728 20.69 256.588 22.01 260.308 24.65C264.028 27.29 265.978 31.16 266.158 36.26H254.908C254.788 34.58 253.948 33.14 252.388 31.94C250.828 30.74 248.578 30.14 245.638 30.14C242.998 30.14 240.958 30.65 239.518 31.67C238.078 32.69 237.358 34.01 237.358 35.63C237.358 37.19 237.928 38.39 239.068 39.23C240.268 40.07 242.188 40.64 244.828 40.94L249.148 41.39C254.908 41.99 259.408 43.58 262.648 46.16C265.948 48.74 267.598 52.22 267.598 56.6C267.598 59.84 266.698 62.66 264.898 65.06C263.158 67.4 260.698 69.23 257.518 70.55C254.338 71.87 250.588 72.53 246.268 72.53ZM290.733 71L300.003 23.75H314.403L325.113 71H315.213L304.323 24.02H309.543L299.913 71H290.733ZM287.043 71L286.953 60.74H296.943V71H287.043ZM282.003 71L268.683 22.13H280.833L293.523 71H282.003ZM318.363 71V60.74H328.353L328.263 71H318.363ZM322.323 71L333.573 22.13H344.913L333.123 71H322.323ZM373.7 72.71C369.38 72.71 365.57 72.02 362.27 70.64C358.97 69.26 356.18 67.4 353.9 65.06C351.62 62.66 349.88 59.96 348.68 56.96C347.54 53.96 346.97 50.84 346.97 47.6V45.71C346.97 42.35 347.57 39.17 348.77 36.17C350.03 33.11 351.8 30.41 354.08 28.07C356.42 25.67 359.24 23.81 362.54 22.49C365.84 21.11 369.56 20.42 373.7 20.42C377.84 20.42 381.56 21.11 384.86 22.49C388.16 23.81 390.95 25.67 393.23 28.07C395.57 30.41 397.34 33.11 398.54 36.17C399.74 39.17 400.34 42.35 400.34 45.71V47.6C400.34 50.84 399.74 53.96 398.54 56.96C397.4 59.96 395.69 62.66 393.41 65.06C391.13 67.4 388.34 69.26 385.04 70.64C381.74 72.02 377.96 72.71 373.7 72.71ZM373.7 62C376.76 62 379.34 61.34 381.44 60.02C383.54 58.64 385.13 56.81 386.21 54.53C387.29 52.19 387.83 49.55 387.83 46.61C387.83 43.61 387.26 40.97 386.12 38.69C385.04 36.35 383.42 34.52 381.26 33.2C379.16 31.82 376.64 31.13 373.7 31.13C370.76 31.13 368.21 31.82 366.05 33.2C363.95 34.52 362.33 36.35 361.19 38.69C360.05 40.97 359.48 43.61 359.48 46.61C359.48 49.55 360.02 52.19 361.1 54.53C362.24 56.81 363.86 58.64 365.96 60.02C368.06 61.34 370.64 62 373.7 62ZM407.794 71V22.13H417.694V42.83H417.424C417.424 35.81 418.924 30.5 421.924 26.9C424.924 23.3 429.334 21.5 435.154 21.5H436.954V32.39H433.534C429.334 32.39 426.064 33.53 423.724 35.81C421.444 38.03 420.304 41.27 420.304 45.53V71H407.794ZM461.721 72.62C458.301 72.62 455.151 71.99 452.271 70.73C449.391 69.47 446.901 67.7 444.801 65.42C442.701 63.14 441.081 60.5 439.941 57.5C438.801 54.44 438.231 51.14 438.231 47.6V45.71C438.231 42.23 438.771 38.96 439.851 35.9C440.991 32.84 442.551 30.17 444.531 27.89C446.571 25.61 449.001 23.84 451.821 22.58C454.701 21.26 457.881 20.6 461.361 20.6C465.201 20.6 468.561 21.44 471.441 23.12C474.381 24.74 476.721 27.2 478.461 30.5C480.201 33.8 481.161 37.94 481.341 42.92L477.651 38.6V5.3H490.161V71H480.261V50.21H482.421C482.241 55.19 481.221 59.36 479.361 62.72C477.501 66.02 475.041 68.51 471.981 70.19C468.981 71.81 465.561 72.62 461.721 72.62ZM464.511 62.09C466.971 62.09 469.221 61.55 471.261 60.47C473.301 59.33 474.921 57.71 476.121 55.61C477.381 53.45 478.011 50.93 478.011 48.05V44.45C478.011 41.57 477.381 39.17 476.121 37.25C474.861 35.27 473.211 33.77 471.171 32.75C469.131 31.67 466.911 31.13 464.511 31.13C461.811 31.13 459.411 31.79 457.311 33.11C455.271 34.37 453.651 36.17 452.451 38.51C451.311 40.85 450.741 43.58 450.741 46.7C450.741 49.82 451.341 52.55 452.541 54.89C453.741 57.17 455.361 58.94 457.401 60.2C459.501 61.46 461.871 62.09 464.511 62.09ZM501.531 71V5.3H514.041V71H501.531ZM495.411 14.66V5.3H514.041V14.66H495.411ZM546.693 72.71C542.493 72.71 538.803 71.99 535.623 70.55C532.503 69.11 529.893 67.19 527.793 64.79C525.753 62.33 524.193 59.6 523.113 56.6C522.093 53.6 521.583 50.54 521.583 47.42V45.71C521.583 42.47 522.093 39.35 523.113 36.35C524.193 33.29 525.753 30.59 527.793 28.25C529.893 25.85 532.473 23.96 535.533 22.58C538.593 21.14 542.133 20.42 546.153 20.42C551.433 20.42 555.843 21.59 559.383 23.93C562.983 26.21 565.683 29.24 567.483 33.02C569.283 36.74 570.183 40.76 570.183 45.08V49.58H526.893V41.93H562.353L558.483 45.71C558.483 42.59 558.033 39.92 557.133 37.7C556.233 35.48 554.853 33.77 552.993 32.57C551.193 31.37 548.913 30.77 546.153 30.77C543.393 30.77 541.053 31.4 539.133 32.66C537.213 33.92 535.743 35.75 534.723 38.15C533.763 40.49 533.283 43.31 533.283 46.61C533.283 49.67 533.763 52.4 534.723 54.8C535.683 57.14 537.153 59 539.133 60.38C541.113 61.7 543.633 62.36 546.693 62.36C549.753 62.36 552.243 61.76 554.163 60.56C556.083 59.3 557.313 57.77 557.853 55.97H569.373C568.653 59.33 567.273 62.27 565.233 64.79C563.193 67.31 560.583 69.26 557.403 70.64C554.283 72.02 550.713 72.71 546.693 72.71ZM594.863 72.53C588.143 72.53 582.863 71.12 579.023 68.3C575.243 65.42 573.263 61.46 573.083 56.42H584.333C584.513 58.1 585.443 59.63 587.123 61.01C588.803 62.39 591.443 63.08 595.043 63.08C598.043 63.08 600.413 62.54 602.153 61.46C603.953 60.38 604.853 58.91 604.853 57.05C604.853 55.43 604.163 54.14 602.783 53.18C601.463 52.22 599.183 51.59 595.943 51.29L591.623 50.84C586.163 50.24 581.963 48.68 579.023 46.16C576.083 43.64 574.613 40.28 574.613 36.08C574.613 32.72 575.453 29.9 577.133 27.62C578.813 25.34 581.123 23.63 584.063 22.49C587.063 21.29 590.483 20.69 594.323 20.69C600.323 20.69 605.183 22.01 608.903 24.65C612.623 27.29 614.573 31.16 614.753 36.26H603.503C603.383 34.58 602.543 33.14 600.983 31.94C599.423 30.74 597.173 30.14 594.233 30.14C591.593 30.14 589.553 30.65 588.113 31.67C586.673 32.69 585.953 34.01 585.953 35.63C585.953 37.19 586.523 38.39 587.663 39.23C588.863 40.07 590.783 40.64 593.423 40.94L597.743 41.39C603.503 41.99 608.003 43.58 611.243 46.16C614.543 48.74 616.193 52.22 616.193 56.6C616.193 59.84 615.293 62.66 613.493 65.06C611.753 67.4 609.293 69.23 606.113 70.55C602.933 71.87 599.183 72.53 594.863 72.53ZM640.758 72.53C634.038 72.53 628.758 71.12 624.918 68.3C621.138 65.42 619.158 61.46 618.978 56.42H630.228C630.408 58.1 631.338 59.63 633.018 61.01C634.698 62.39 637.338 63.08 640.938 63.08C643.938 63.08 646.308 62.54 648.048 61.46C649.848 60.38 650.748 58.91 650.748 57.05C650.748 55.43 650.058 54.14 648.678 53.18C647.358 52.22 645.078 51.59 641.838 51.29L637.518 50.84C632.058 50.24 627.858 48.68 624.918 46.16C621.978 43.64 620.508 40.28 620.508 36.08C620.508 32.72 621.348 29.9 623.028 27.62C624.708 25.34 627.018 23.63 629.958 22.49C632.958 21.29 636.378 20.69 640.218 20.69C646.218 20.69 651.078 22.01 654.798 24.65C658.518 27.29 660.468 31.16 660.648 36.26H649.398C649.278 34.58 648.438 33.14 646.878 31.94C645.318 30.74 643.068 30.14 640.128 30.14C637.488 30.14 635.448 30.65 634.008 31.67C632.568 32.69 631.848 34.01 631.848 35.63C631.848 37.19 632.418 38.39 633.558 39.23C634.758 40.07 636.678 40.64 639.318 40.94L643.638 41.39C649.398 41.99 653.898 43.58 657.138 46.16C660.438 48.74 662.088 52.22 662.088 56.6C662.088 59.84 661.188 62.66 659.388 65.06C657.648 67.4 655.188 69.23 652.008 70.55C648.828 71.87 645.078 72.53 640.758 72.53Z" fill="white"/>
</svg>
