<svg width="1920" height="322" viewBox="0 0 1920 322" fill="none" xmlns="http://www.w3.org/2000/svg">
<g style="mix-blend-mode:multiply" opacity="0.1">
<path d="M1919.93 172.916L1932 175.216V322H-11V33.1553L1.04999 53.4223L13.1216 60.3515L25.1932 48.7664L37.2647 24.8567L49.3363 18.4479L61.4079 32.7444L73.4795 64.2953L85.5511 100.749L97.6226 90.7795L109.694 118.962L121.766 148.349L133.837 97.6539L145.909 50.4644L157.981 63.7476L170.052 79.3587L182.124 76.1269L194.195 69.992L206.267 85.4388L218.338 122.166L230.41 119.948L242.482 114.196L254.553 142.214L266.625 96.394L278.696 76.483L290.768 86.8082L302.84 128.821L314.911 117.538L326.983 101.214L339.054 79.8791L351.126 70.4302L363.197 101.543L375.269 62.7616L387.341 66.0482L399.412 91.6011L411.484 82.6453L423.555 82.2892L435.627 93.9017L447.699 69.28L459.77 75.7709L471.842 107.65L483.913 124.987L495.985 102.858L508.056 82.5083L520.128 123.974L532.2 141.338L544.271 140.133L556.343 86.6987L568.414 103.652L580.486 111.594L592.557 165.329L604.629 196.305L616.701 106.528L628.772 89.2731L640.844 127.616L652.915 100.037L664.987 123.563L677.059 135.778L689.13 147.856L701.202 144.131L713.273 85.877L725.345 106.062L737.416 99.2697L749.488 96.7501L761.56 108.116L773.631 80.3721L785.703 90.0126L797.774 96.2297L809.846 89.9578L821.918 103.926L833.486 98.722L845.558 91.3272L857.629 92.0941L869.701 109.349L881.772 88.8897L893.844 112.033L905.916 100.201L917.987 107.13L930.059 85.0554L942.13 77.9619L954.202 119.208L966.273 115.292L978.345 117.565L990.417 98.4481L1002.49 112.58L1014.56 101.981L1026.63 122.358L1038.7 120.057L1050.77 140.927L1062.85 136.463L1074.92 140.68L1086.99 97.2156L1099.06 94.3399L1111.13 132.135L1123.2 104.063L1135.28 145.227L1147.35 110.691L1159.42 100.995L1171.49 113.594L1183.56 114.333L1195.63 119.756L1207.71 146.569L1219.78 206.11L1231.85 192.087L1243.92 95.9832L1255.99 140.762L1268.06 107.787L1280.13 127.808L1292.21 105.733L1304.28 119.893L1316.35 150.43L1328.42 159.852L1340.49 159.085L1352.56 157.88L1364.64 140.434L1376.71 169.958L1388.78 130.328L1400.85 164.371L1412.92 137.531L1424.99 119.701L1437.07 200.879L1449.14 225.747L1461.21 233.115L1473.28 209.862L1485.35 186.336L1497.42 157.414L1509.49 184.556L1521.57 176.915L1533.64 187.103L1545.71 167.877L1557.78 181.79L1569.85 140.187L1581.92 130.574L1594 175.299L1606.07 225.063L1618.14 157.497L1630.21 177.544L1642.28 157.962L1654.35 135.531L1666.43 204.302L1678.5 189.102L1690.57 161.906L1702.64 203.536L1714.71 208.082L1726.78 218.681L1738.85 225.747L1750.93 161.413L1763 169.821L1775.07 220.735L1787.14 179.845L1799.21 168.753L1811.28 202.632L1823.36 214.299L1835.43 153.169L1847.5 176.394L1859.57 182.063L1871.64 169.739L1883.71 174.011L1895.79 203.864L1907.86 200.989L1919.93 172.916Z" fill="url(#paint0_linear_325_4045)"/>
</g>
<path d="M1932 175.216L1919.93 172.916L1907.86 200.989L1895.79 203.864L1883.71 174.011L1871.64 169.739L1859.57 182.063L1847.5 176.394L1835.43 153.169L1823.36 214.299L1811.28 202.632L1799.21 168.753L1787.14 179.845L1775.07 220.735L1763 169.821L1750.93 161.413L1738.85 225.747L1726.78 218.681L1714.71 208.082L1702.64 203.536L1690.57 161.906L1678.5 189.102L1666.43 204.302L1654.35 135.531L1642.28 157.962L1630.21 177.544L1618.14 157.497L1606.07 225.063L1594 175.299L1581.92 130.574L1569.85 140.187L1557.78 181.79L1545.71 167.877L1533.64 187.103L1521.57 176.915L1509.49 184.556L1497.42 157.414L1485.35 186.336L1473.28 209.862L1461.21 233.115L1449.14 225.747L1437.07 200.879L1424.99 119.701L1412.92 137.531L1400.85 164.371L1388.78 130.328L1376.71 169.958L1364.64 140.434L1352.56 157.88L1340.49 159.085L1328.42 159.852L1316.35 150.43L1304.28 119.893L1292.21 105.733L1280.13 127.808L1268.06 107.787L1255.99 140.762L1243.92 95.9832L1231.85 192.087L1219.78 206.11L1207.71 146.569L1195.63 119.756L1183.56 114.333L1171.49 113.594L1159.42 100.995L1147.35 110.691L1135.28 145.227L1123.2 104.063L1111.13 132.135L1099.06 94.3399L1086.99 97.2156L1074.92 140.68L1062.85 136.463L1050.77 140.927L1038.7 120.057L1026.63 122.358L1014.56 101.981L1002.49 112.58L990.417 98.4481L978.345 117.565L966.273 115.292L954.202 119.208L942.13 77.9619L930.059 85.0554L917.987 107.13L905.916 100.201L893.844 112.033L881.772 88.8897L869.701 109.349L857.629 92.0941L845.558 91.3272L833.486 98.722L821.918 103.926L809.846 89.9578L797.774 96.2297L785.703 90.0126L773.631 80.3721L761.56 108.116L749.488 96.7501L737.416 99.2697L725.345 106.062L713.273 85.877L701.202 144.131L689.13 147.856L677.059 135.778L664.987 123.563L652.915 100.037L640.844 127.616L628.772 89.2731L616.701 106.528L604.629 196.305L592.557 165.329L580.486 111.594L568.414 103.652L556.343 86.6987L544.271 140.133L532.2 141.338L520.128 123.974L508.056 82.5083L495.985 102.858L483.913 124.987L471.842 107.65L459.77 75.7709L447.698 69.28L435.627 93.9017L423.555 82.2892L411.484 82.6453L399.412 91.6011L387.341 66.0482L375.269 62.7616L363.197 101.543L351.126 70.4302L339.054 79.8791L326.983 101.214L314.911 117.538L302.84 128.821L290.768 86.8082L278.696 76.483L266.625 96.394L254.553 142.214L242.482 114.196L230.41 119.948L218.338 122.166L206.267 85.4388L194.195 69.992L182.124 76.1269L170.052 79.3587L157.981 63.7476L145.909 50.4644L133.837 97.6539L121.766 148.349L109.694 118.962L97.6226 90.7795L85.5511 100.749L73.4795 64.2953L61.4079 32.7444L49.3363 18.4479L37.2647 24.8567L25.1932 48.7664L13.1216 60.3515L1.04999 53.4223L-11 33.1553" stroke="#CDF348" stroke-width="2" stroke-linecap="round" stroke-linejoin="round"/>
<defs>
<linearGradient id="paint0_linear_325_4045" x1="960.5" y1="18.4479" x2="960.5" y2="308.486" gradientUnits="userSpaceOnUse">
<stop stop-color="#CDF348"/>
<stop offset="1" stop-color="#CDF348" stop-opacity="0"/>
</linearGradient>
</defs>
</svg>
