<svg width="101" height="100" viewBox="0 0 101 100" fill="none" xmlns="http://www.w3.org/2000/svg">
    <g id="Stopwatch Speed">
        <path id="Vector" opacity="0.4" fill-rule="evenodd" clip-rule="evenodd"
            d="M51.4966 23.1577C34.189 23.1577 20.1121 37.2346 20.1121 54.5423C20.1121 54.9358 20.1221 55.3296 20.1371 55.7181C20.1608 56.3312 20.67 56.8116 21.2837 56.8116H34.189C38.4582 56.8116 41.8812 60.2346 41.8812 64.5039C41.8812 64.6946 41.8735 64.8827 41.8585 65.0681C41.7962 65.8358 42.3454 66.5808 43.1158 66.5808H43.7658C47.9966 66.5808 51.4581 70.0039 51.4581 74.2731C51.4581 74.9212 51.3731 75.5573 51.217 76.1673C51.0478 76.8285 51.5066 77.5423 52.1889 77.5423C55.7778 77.5423 58.8001 80.0158 59.6301 83.3627C59.807 84.0758 60.512 84.5896 61.2108 84.3623C73.7781 80.2731 82.8812 68.465 82.8812 54.5423C82.8812 37.2346 68.8043 23.1577 51.4966 23.1577Z"
            fill="#cdf348" />
        <path id="Vector_2" fill-rule="evenodd" clip-rule="evenodd"
            d="M43.4295 17.6513H59.6142C61.2065 17.6513 62.4988 16.359 62.4988 14.7667C62.4988 13.1744 61.2065 11.8821 59.6142 11.8821H43.4295C41.8372 11.8821 40.5449 13.1744 40.5449 14.7667C40.5449 16.359 41.8372 17.6513 43.4295 17.6513Z"
            fill="#cdf348" />
        <path id="Vector_3" fill-rule="evenodd" clip-rule="evenodd"
            d="M46.6343 74.2677C46.6343 72.6754 45.342 71.3831 43.7497 71.3831H27.2459C25.6536 71.3831 24.3613 72.6754 24.3613 74.2677C24.3613 75.86 25.6536 77.1523 27.2459 77.1523H43.7497C45.342 77.1523 46.6343 75.86 46.6343 74.2677Z"
            fill="#cdf348" />
        <path id="Vector_4" fill-rule="evenodd" clip-rule="evenodd"
            d="M52.1704 82.3484H35.6666C34.0743 82.3484 32.782 83.6407 32.782 85.233C32.782 86.8253 34.0743 88.1176 35.6666 88.1176H52.1704C53.7627 88.1176 55.055 86.8253 55.055 85.233C55.055 83.6407 53.7627 82.3484 52.1704 82.3484Z"
            fill="#cdf348" />
        <path id="Vector_5" fill-rule="evenodd" clip-rule="evenodd"
            d="M37.0882 64.4981C37.0882 62.9058 35.7959 61.6135 34.2036 61.6135H17.6959C16.1036 61.6135 14.8113 62.9058 14.8113 64.4981C14.8113 66.0904 16.1036 67.3828 17.6959 67.3828H34.2036C35.7959 67.3828 37.0882 66.0904 37.0882 64.4981Z"
            fill="#cdf348" />
        <path id="Vector_6"
            d="M64.8047 45.1576L53.497 56.4653C52.9585 57.0422 52.1893 57.3114 51.4585 57.3114C50.7277 57.3114 49.997 57.0422 49.42 56.4653C48.3046 55.3499 48.3046 53.5038 49.42 52.3884L60.7277 41.0807C61.8816 39.9653 63.6893 39.9653 64.8047 41.0807C65.9585 42.1961 65.9585 44.0422 64.8047 45.1576Z"
            fill="#cdf348" />
    </g>
</svg>