<svg width="101" height="100" viewBox="0 0 101 100" fill="none" xmlns="http://www.w3.org/2000/svg">
    <g id="Server refresh 2">
        <g id="Group" opacity="0.4">
            <path id="Vector" fill-rule="evenodd" clip-rule="evenodd"
                d="M66.4504 10.4167H33.5339C20.0339 10.4167 10.6172 19.5001 10.6172 32.5001V45.6251C10.6172 46.3155 11.1769 46.8751 11.8672 46.8751H88.5337C89.2241 46.8751 89.7837 46.3155 89.7837 45.6251V32.5001C89.7837 19.2917 80.4087 10.4167 66.4504 10.4167Z"
                fill="#cdf348" />
            <path id="Vector_2" fill-rule="evenodd" clip-rule="evenodd"
                d="M55.8274 55.6904C56.7499 54.8567 56.1937 53.125 54.9499 53.125H11.8672C11.1769 53.125 10.6172 53.6846 10.6172 54.375V67.5C10.6172 80.7083 19.8255 89.5833 33.5339 89.5833H48.9108C49.8999 89.5833 50.5083 88.4812 50.0487 87.6054C48.1416 83.9717 47.0754 79.8421 47.0754 75.4167C47.0754 67.5925 50.4429 60.5587 55.8274 55.6904Z"
                fill="#cdf348" />
        </g>
        <path id="Vector_3" fill-rule="evenodd" clip-rule="evenodd"
            d="M87.9245 56.7991C86.1995 56.7991 84.7995 58.1991 84.7995 59.9241V60.5532C82.1912 58.6991 78.7037 57.0782 74.2245 57.0782C68.2412 57.0782 62.7287 60.3741 60.1787 65.4741C59.4078 67.0199 60.0328 68.8949 61.5787 69.6657C63.1245 70.4407 64.9953 69.8157 65.7703 68.2699C67.2453 65.3157 70.6453 63.3282 74.2245 63.3282C76.412 63.3282 78.2412 63.9491 79.7703 64.7616C78.162 64.8907 76.8828 66.1991 76.8828 67.8407C76.8828 69.5657 78.2828 70.9657 80.0078 70.9657H87.9245C89.6495 70.9657 91.0495 69.5657 91.0495 67.8407V59.9241C91.0495 58.1991 89.6495 56.7991 87.9245 56.7991Z"
            fill="#cdf348" />
        <path id="Vector_4" fill-rule="evenodd" clip-rule="evenodd"
            d="M86.9915 77.0583C85.4832 76.2208 83.5832 76.7625 82.7415 78.275C81.1124 81.2041 77.529 83.3333 74.2249 83.3333C72.4874 83.3333 70.9374 82.65 69.604 81.7625H70.1999C71.9249 81.7625 73.3249 80.3625 73.3249 78.6375C73.3249 76.9125 71.9249 75.5125 70.1999 75.5125H62.2832C60.5582 75.5125 59.1582 76.9125 59.1582 78.6375V86.1375C59.1582 87.8625 60.5582 89.2625 62.2832 89.2625C63.9165 89.2625 65.2165 87.9958 65.354 86.3958C67.679 88.125 70.654 89.5833 74.2249 89.5833C79.7499 89.5833 85.4999 86.1791 88.2082 81.3083C89.0457 79.8 88.4999 77.8958 86.9915 77.0583Z"
            fill="#cdf348" />
        <path id="Vector_5" fill-rule="evenodd" clip-rule="evenodd"
            d="M69.3666 33.96H50.6166C48.8666 33.96 47.4916 32.5433 47.4916 30.835C47.4916 29.1266 48.8666 27.71 50.6166 27.71H69.3666C71.0749 27.71 72.4916 29.1266 72.4916 30.835C72.4916 32.5433 71.0749 33.96 69.3666 33.96ZM33.1168 33.96H31.0334C29.2834 33.96 27.9084 32.5433 27.9084 30.835C27.9084 29.1266 29.2834 27.71 31.0334 27.71H33.1168C34.8251 27.71 36.2418 29.1266 36.2418 30.835C36.2418 32.5433 34.8251 33.96 33.1168 33.96Z"
            fill="#cdf348" />
        <path id="Vector_6" fill-rule="evenodd" clip-rule="evenodd"
            d="M33.1168 72.2935H31.0334C29.2834 72.2935 27.9084 70.8768 27.9084 69.1685C27.9084 67.4601 29.2834 66.0435 31.0334 66.0435H33.1168C34.8251 66.0435 36.2418 67.4601 36.2418 69.1685C36.2418 70.8768 34.8251 72.2935 33.1168 72.2935Z"
            fill="#cdf348" />
    </g>
</svg>