<svg width="101" height="100" viewBox="0 0 101 100" fill="none" xmlns="http://www.w3.org/2000/svg">
    <g id="user" clip-path="url(#clip0_57_5906)">
        <path id="Vector" fill-rule="evenodd" clip-rule="evenodd"
            d="M72.0699 45.6481H72.1469C80.3392 45.6481 87.0315 38.9559 87.0315 30.8021C87.0315 22.6098 80.3392 15.9175 72.1469 15.9175C70.5315 15.9175 68.993 16.1867 67.5315 16.6482C70.1853 20.5713 71.7238 25.3021 71.7238 30.4175C71.7622 35.6098 70.1469 40.6098 67.1084 44.7634C68.6853 45.3404 70.3392 45.6481 72.0699 45.6481Z"
            fill="#cdf348" />
        <path id="Vector_2" fill-rule="evenodd" clip-rule="evenodd"
            d="M22.3779 45.6481H22.4933C24.2241 45.6481 25.8779 45.3404 27.4548 44.7634C24.5317 40.7636 22.801 35.8021 22.801 30.4175C22.801 25.3021 24.3394 20.5713 26.9933 16.6482C25.5317 16.1867 23.9933 15.9175 22.3779 15.9175C14.1856 15.9175 7.53174 22.6098 7.53174 30.8021C7.53174 38.9559 14.1856 45.6481 22.3779 45.6481Z"
            fill="#cdf348" />
        <path id="Vector_3" fill-rule="evenodd" clip-rule="evenodd"
            d="M47.2649 49.133H47.3918C52.3726 49.1177 57.0495 47.16 60.5572 43.6254C64.0688 40.0909 65.9918 35.4024 65.9726 30.4293C65.9726 20.1101 57.5842 11.7178 47.2649 11.7178C36.9495 11.7178 28.561 20.1101 28.561 30.4293C28.561 40.7409 36.9495 49.133 47.2649 49.133Z"
            fill="#cdf348" />
        <g id="Group" opacity="0.4">
            <path id="Vector_4" fill-rule="evenodd" clip-rule="evenodd"
                d="M72.1857 51.1858C67.801 51.1858 63.6857 52.0704 60.2241 53.5704C72.3395 57.0704 80.9164 65.455 81.1472 75.2627C87.4549 74.455 94.2626 72.0704 94.2626 65.5704C94.2626 57.7627 84.1472 51.1858 72.1857 51.1858Z"
                fill="#cdf348" />
            <path id="Vector_5" fill-rule="evenodd" clip-rule="evenodd"
                d="M34.3013 53.5319C30.8397 52.0704 26.7243 51.1858 22.3782 51.1858C10.4166 51.1858 0.30127 57.7627 0.30127 65.5704C0.30127 72.0704 7.07049 74.4166 13.3782 75.2627C13.5705 65.455 22.1474 57.0704 34.3013 53.5319Z"
                fill="#cdf348" />
            <path id="Vector_6" fill-rule="evenodd" clip-rule="evenodd"
                d="M47.2614 57.4824C32.0269 57.4824 19.1538 65.7747 19.1538 75.5901C19.1538 88.2824 40.3076 88.2824 47.2614 88.2824C59.3307 88.2824 75.3768 86.9747 75.3768 75.6709C75.3768 65.8093 62.4999 57.4824 47.2614 57.4824Z"
                fill="#cdf348" />
        </g>
    </g>
    <defs>
        <clipPath id="clip0_57_5906">
            <rect width="100" height="100" fill="white" transform="translate(0.166992)" />
        </clipPath>
    </defs>
</svg>